<svg width="24" height="24" viewBox="0 0 24 24" fill="none" xmlns="http://www.w3.org/2000/svg">
<path d="M6.00005 18.1244V18.8856C6.00005 19.506 5.49704 20.0091 4.87655 20.0091V20.0091C4.25606 20.0091 3.75305 19.506 3.75305 18.8856V10.1265C3.75305 9.50602 4.25606 9.00302 4.87655 9.00302V9.00302C5.49704 9.00302 6.00005 9.50603 6.00005 10.1265V11.0217M6.00005 18.1244L6.74943 18.8306C7.3026 19.3518 7.57919 19.6125 7.91809 19.7975C8.02629 19.8565 8.15112 19.9147 8.26598 19.9594C8.62573 20.0997 8.98521 20.1415 9.70419 20.225C10.7568 20.3474 12.0779 20.4796 13.0001 20.4976C13.6936 20.5112 14.5101 20.4655 15.2986 20.3972C16.5836 20.286 17.226 20.2303 17.8254 19.8665C18.0097 19.7547 18.2142 19.5959 18.3682 19.445C18.869 18.9544 19.101 18.291 19.5651 16.9644L20.7594 13.5502C21.3845 11.7632 20.1406 9.87067 18.2523 9.73572L16.268 9.59391C15.5951 9.54582 15.1171 8.91828 15.2495 8.25681V8.25681C15.6271 6.93685 15.6261 5.80164 15.2466 4.61039C15.0232 3.90895 14.3391 3.5 13.6178 3.5C13.1127 3.5 12.6323 3.71626 12.4284 4.18885C12.029 5.11465 11.3547 7.01836 10.3718 8.0236C8.91096 9.51762 7.83798 10.386 6.00005 11.0217M6.00005 18.1244V11.0217" stroke="#292556" stroke-width="1.5" stroke-linecap="round" stroke-linejoin="round"/>
</svg>
