<svg width="24" height="24" viewBox="0 0 24 24" fill="none" xmlns="http://www.w3.org/2000/svg">
<path fill-rule="evenodd" clip-rule="evenodd" d="M11.2501 3.99704V2.27832C9.1222 2.44017 7.18523 3.28506 5.65794 4.59422L6.8725 5.80879C7.1654 6.10169 7.1654 6.57656 6.8725 6.86945C6.57961 7.16234 6.10474 7.16234 5.81184 6.86945L4.59705 5.65466C3.28693 7.18174 2.44116 9.11883 2.27863 11.247H4.0001C4.41431 11.247 4.7501 11.5828 4.7501 11.997C4.7501 12.4113 4.41431 12.747 4.0001 12.747H2.2782C2.43953 14.8761 3.28463 16.8141 4.59443 18.3421L5.81335 17.1238C6.10631 16.8309 6.58118 16.831 6.87401 17.124C7.16683 17.417 7.16672 17.8918 6.87376 18.1847L5.65488 19.403C7.18263 20.7136 9.12075 21.5595 11.25 21.7215L11.2497 19.9972C11.2496 19.583 11.5854 19.2471 11.9996 19.247C12.4138 19.247 12.7496 19.5827 12.7497 19.9969L12.75 21.7215C14.8794 21.5595 16.8175 20.7136 18.3453 19.4029L17.1256 18.1832C16.8327 17.8903 16.8327 17.4154 17.1256 17.1225C17.4184 16.8296 17.8933 16.8296 18.1862 17.1225L19.4057 18.342C20.7154 16.814 21.5605 14.876 21.7218 12.747H20.0001C19.5859 12.747 19.2501 12.4113 19.2501 11.997C19.2501 11.5828 19.5859 11.247 20.0001 11.247H21.7214C21.5588 9.1189 20.7131 7.18185 19.4031 5.65479L18.1877 6.87071C17.8949 7.16367 17.42 7.16378 17.1271 6.87096C16.8341 6.57813 16.834 6.10326 17.1268 5.8103L18.3422 4.59434C16.8149 3.28515 14.878 2.44023 12.7501 2.27834V3.99704C12.7501 4.41126 12.4143 4.74704 12.0001 4.74704C11.5859 4.74704 11.2501 4.41126 11.2501 3.99704ZM11.9997 6.99704C12.4139 6.99704 12.7497 7.33283 12.7497 7.74704V9.87802C13.6236 10.187 14.25 11.0203 14.25 11.9999C14.25 13.2426 13.2426 14.2499 12 14.2499C10.7574 14.2499 9.75 13.2423 9.75 11.9996C9.75 11.0202 10.376 10.1868 11.2497 9.87791V7.74704C11.2497 7.33283 11.5855 6.99704 11.9997 6.99704Z" fill="#292556"/>
</svg>
