<svg width="24" height="24" viewBox="0 0 24 24" fill="none" xmlns="http://www.w3.org/2000/svg">
<path fill-rule="evenodd" clip-rule="evenodd" d="M9.85324 2.83266C9.61182 3.02346 9.36253 3.30394 8.86393 3.8649C8.70536 4.04331 8.62608 4.13251 8.54299 4.21432C8.11838 4.63235 7.59407 4.93506 7.01974 5.09376C6.90735 5.12482 6.79046 5.14888 6.55667 5.197C5.82156 5.34832 5.45401 5.42397 5.16807 5.53764C3.6613 6.13664 2.76324 7.69214 2.99787 9.29654C3.0424 9.601 3.16066 9.95714 3.39717 10.6694C3.47239 10.8959 3.51 11.0092 3.5393 11.1221C3.68902 11.6988 3.68902 12.3042 3.5393 12.881C3.51 12.9938 3.47239 13.1071 3.39717 13.3336C3.16066 14.0459 3.0424 14.402 2.99787 14.7065C2.76324 16.3109 3.6613 17.8664 5.16807 18.4654C5.45401 18.5791 5.82156 18.6547 6.55667 18.806C6.79046 18.8542 6.90736 18.8782 7.01974 18.9093C7.59407 19.068 8.11838 19.3707 8.54299 19.7887C8.62608 19.8705 8.70536 19.9597 8.86393 20.1381L8.86396 20.1382C9.36254 20.6991 9.61183 20.9796 9.85324 21.1704C11.1254 22.1758 12.9215 22.1758 14.1936 21.1704C14.435 20.9796 14.6843 20.6991 15.1829 20.1381C15.3415 19.9597 15.4208 19.8705 15.5039 19.7887C15.9285 19.3707 16.4528 19.068 17.0271 18.9093C17.1395 18.8782 17.2564 18.8542 17.4902 18.806C18.2253 18.6547 18.5929 18.5791 18.8788 18.4654C20.3856 17.8664 21.2836 16.3109 21.049 14.7065C21.0045 14.402 20.8862 14.0459 20.6497 13.3336C20.5745 13.1071 20.5369 12.9938 20.5076 12.881C20.3579 12.3042 20.3579 11.6988 20.5076 11.1221C20.5369 11.0092 20.5745 10.896 20.6497 10.6694C20.8862 9.95714 21.0045 9.601 21.049 9.29654C21.2836 7.69214 20.3856 6.13664 18.8788 5.53765C18.5929 5.42397 18.2253 5.34832 17.4902 5.197C17.2564 5.14888 17.1395 5.12482 17.0271 5.09376C16.4528 4.93506 15.9285 4.63235 15.5039 4.21432C15.4208 4.13251 15.3415 4.04331 15.1829 3.8649C14.6843 3.30394 14.435 3.02346 14.1936 2.83266C12.9215 1.82726 11.1254 1.82726 9.85324 2.83266ZM12 14.2501C13.2426 14.2501 14.25 13.2428 14.25 12.0001C14.25 10.7575 13.2426 9.75012 12 9.75012C10.7574 9.75012 9.75 10.7575 9.75 12.0001C9.75 13.2428 10.7574 14.2501 12 14.2501Z" fill="#292556"/>
</svg>
