<svg width="24" height="24" viewBox="0 0 24 24" fill="none" xmlns="http://www.w3.org/2000/svg">
<path d="M5.78183 9.41863C4.26023 8.64639 3.49943 8.26026 3.37072 7.68532C3.33047 7.5055 3.33047 7.319 3.37072 7.13918C3.49943 6.56424 4.26023 6.17811 5.78183 5.40586L10.9817 2.76681C11.4247 2.54198 11.6462 2.42957 11.8827 2.40728C11.9607 2.39994 12.0392 2.39994 12.1172 2.40728C12.3538 2.42957 12.5753 2.54198 13.0183 2.76681L18.2181 5.40586C19.7397 6.17811 20.5005 6.56424 20.6292 7.13918C20.6695 7.319 20.6695 7.5055 20.6292 7.68532C20.5005 8.26026 19.7397 8.64639 18.2181 9.41863L13.0183 12.0577C12.5753 12.2825 12.3538 12.3949 12.1172 12.4172C12.0392 12.4246 11.9607 12.4246 11.8827 12.4172C11.6462 12.3949 11.4247 12.2825 10.9817 12.0577L5.78183 9.41863Z" fill="#292556"/>
<path d="M5.13315 10.7715C4.78006 10.5923 4.36266 10.5923 4.00957 10.7715C3.10353 11.2314 3.10353 12.5255 4.00957 12.9854L10.9817 16.5239C11.4247 16.7487 11.6462 16.8611 11.8827 16.8834C11.9607 16.8908 12.0392 16.8908 12.1172 16.8834C12.3538 16.8611 12.5753 16.7487 13.0183 16.5239L19.9904 12.9854C20.8964 12.5255 20.8964 11.2314 19.9904 10.7715C19.6373 10.5923 19.2199 10.5923 18.8668 10.7715L13.0183 13.7398C12.5753 13.9646 12.3538 14.0771 12.1172 14.0993C12.0392 14.1067 11.9607 14.1067 11.8827 14.0993C11.6462 14.0771 11.4247 13.9646 10.9817 13.7398L5.13315 10.7715Z" fill="#292556"/>
<path d="M19.9904 15.2378C19.6373 15.0586 19.2199 15.0586 18.8668 15.2378L13.0183 18.206C12.5753 18.4309 12.3538 18.5433 12.1172 18.5656C12.0392 18.5729 11.9607 18.5729 11.8827 18.5656C11.6462 18.5433 11.4247 18.4309 10.9817 18.206L5.13315 15.2378C4.78006 15.0586 4.36266 15.0586 4.00957 15.2378C3.10353 15.6976 3.10353 16.9918 4.00957 17.4516L10.9817 20.9901C11.4247 21.2149 11.6462 21.3274 11.8827 21.3496C11.9607 21.357 12.0392 21.357 12.1172 21.3496C12.3538 21.3274 12.5753 21.2149 13.0183 20.9901L19.9904 17.4516C20.8964 16.9918 20.8964 15.6976 19.9904 15.2378Z" fill="#292556"/>
</svg>
