<svg width="24" height="24" viewBox="0 0 24 24" fill="none" xmlns="http://www.w3.org/2000/svg">
<path d="M8.7424 5.4892L8.74922 7.95034C8.74948 8.04406 8.70371 8.13194 8.62676 8.18544L3.26642 11.9129C2.62944 12.3559 2.24963 13.0826 2.24963 13.8585C2.24963 15.4328 3.75652 16.5695 5.2703 16.137L9.24963 15V16.3272C9.24963 16.4905 9.24963 16.5721 9.22516 16.6474C9.21707 16.6723 9.20703 16.6965 9.19514 16.7199C9.15918 16.7904 9.10147 16.8482 8.98603 16.9636L7.79903 18.1506C7.61874 18.3309 7.52859 18.421 7.46013 18.5236C7.36908 18.6599 7.30573 18.8128 7.27371 18.9736C7.24963 19.0945 7.24963 19.222 7.24963 19.477C7.24963 20.4543 7.24963 20.943 7.42258 21.2366C7.65257 21.6271 8.0759 21.8625 8.52896 21.8519C8.86963 21.8439 9.28477 21.5861 10.115 21.0704L11.9996 19.9L13.8842 21.0704C14.7145 21.5861 15.1296 21.8439 15.4703 21.8519C15.9234 21.8625 16.3467 21.6271 16.5767 21.2366C16.7496 20.943 16.7496 20.4543 16.7496 19.477C16.7496 19.222 16.7496 19.0945 16.7256 18.9736C16.6935 18.8128 16.6302 18.6599 16.5391 18.5236C16.4707 18.421 16.3805 18.3309 16.2002 18.1506L16.2002 18.1506L15.0132 16.9636C14.8978 16.8482 14.8401 16.7904 14.8041 16.7199C14.7922 16.6965 14.7822 16.6723 14.7741 16.6474C14.7496 16.5721 14.7496 16.4905 14.7496 16.3272V15L18.729 16.137C20.2428 16.5695 21.7496 15.4328 21.7496 13.8585C21.7496 13.0826 21.3698 12.3559 20.7328 11.9129L15.3724 8.18539C15.2955 8.1319 15.2496 8.04413 15.2496 7.95043V5.48019C15.2496 3.68326 13.7929 2.22656 11.996 2.22656C10.1956 2.22656 8.73741 3.68876 8.7424 5.4892Z" fill="#292556"/>
</svg>
