<svg width="24" height="24" viewBox="0 0 24 24" fill="none" xmlns="http://www.w3.org/2000/svg">
<path d="M2.25 19.25C2.25 18.2835 3.0335 17.5 4 17.5H20C20.9665 17.5 21.75 18.2835 21.75 19.25C21.75 20.2165 20.9665 21 20 21H4C3.0335 21 2.25 20.2165 2.25 19.25Z" fill="#292556"/>
<path fill-rule="evenodd" clip-rule="evenodd" d="M3.24982 15.1V14.4773C3.24982 10.3521 6.11935 6.8954 9.97611 5.98459C9.83115 5.6872 9.74982 5.3531 9.74982 5C9.74982 3.75736 10.7572 2.75 11.9998 2.75C13.2425 2.75 14.2498 3.75736 14.2498 5C14.2498 5.3531 14.1685 5.6872 14.0235 5.98459C17.8803 6.8954 20.7498 10.3521 20.7498 14.4773V15.1C20.7498 15.475 20.7498 15.6625 20.6543 15.7939C20.6235 15.8363 20.5862 15.8737 20.5437 15.9045C20.4123 16 20.2248 16 19.8498 16H4.14982C3.77484 16 3.58736 16 3.45592 15.9045C3.41348 15.8737 3.37615 15.8363 3.34531 15.7939C3.24982 15.6625 3.24982 15.475 3.24982 15.1ZM9.88893 10.3328C10.2431 10.118 10.3561 9.65675 10.1413 9.30258C9.92647 8.94842 9.46523 8.83544 9.11106 9.05024C7.56359 9.98879 6.40957 11.5133 5.95795 13.3189C5.85745 13.7207 6.10173 14.128 6.50356 14.2285C6.9054 14.329 7.31262 14.0847 7.41313 13.6829C7.76677 12.2689 8.67211 11.0708 9.88893 10.3328Z" fill="#292556"/>
</svg>
