<svg width="24" height="24" viewBox="0 0 24 24" fill="none" xmlns="http://www.w3.org/2000/svg">
<path fill-rule="evenodd" clip-rule="evenodd" d="M18.5 13.6112C18.5 18.7212 14.7857 21.0001 12 21.0001C13.2857 21.0001 15 19.9206 15 17.5001C15 16.1131 14.0149 14.5097 13.1737 13.3933C12.7635 12.8489 12.5583 12.5766 12.1783 12.5048C12.0743 12.4851 11.9154 12.4847 11.8114 12.5039C11.431 12.5739 11.2256 12.8438 10.8147 13.3836C9.97608 14.4854 9 16.0741 9 17.5001C9 20.0001 10.7143 21.0001 12 21.0001C9.21429 21.0001 5.5 18.889 5.5 13.6112C5.5 10.4842 7.78165 6.98678 9.64132 4.65548C10.4744 3.61115 10.8909 3.08898 11.6321 2.95618C11.837 2.91947 12.1437 2.92031 12.3484 2.95815C13.0888 3.09502 13.5045 3.62199 14.3358 4.67593C16.1996 7.03889 18.5 10.5712 18.5 13.6112Z" fill="#292556" fill-opacity="0.18"/>
<path d="M13.1737 13.3933L13.7727 12.942L13.7727 12.942L13.1737 13.3933ZM12.1783 12.5048L12.3177 11.7678L12.3177 11.7678L12.1783 12.5048ZM11.8114 12.5039L11.9472 13.2415L11.9472 13.2415L11.8114 12.5039ZM10.8147 13.3836L10.2179 12.9293L10.2179 12.9293L10.8147 13.3836ZM9.64132 4.65548L9.05501 4.18778L9.05501 4.18778L9.64132 4.65548ZM11.6321 2.95618L11.4998 2.21794L11.4998 2.21794L11.6321 2.95618ZM12.3484 2.95815L12.4847 2.22064L12.4847 2.22064L12.3484 2.95815ZM14.3358 4.67593L13.7469 5.1404L13.7469 5.1404L14.3358 4.67593ZM12 21.7501C15.1605 21.7501 19.25 19.1737 19.25 13.6112H17.75C17.75 18.2687 14.4109 20.2501 12 20.2501V21.7501ZM12 21.7501C13.6793 21.7501 15.75 20.3552 15.75 17.5001H14.25C14.25 19.486 12.8922 20.2501 12 20.2501V21.7501ZM15.75 17.5001C15.75 16.6425 15.4499 15.775 15.0752 15.0139C14.6958 14.2433 14.2098 13.5221 13.7727 12.942L12.5748 13.8447C12.9789 14.381 13.406 15.0196 13.7295 15.6765C14.0576 16.3429 14.25 16.9706 14.25 17.5001H15.75ZM13.7727 12.942C13.5814 12.6881 13.3881 12.428 13.186 12.2326C12.9554 12.0096 12.682 11.8367 12.3177 11.7678L12.0389 13.2417C12.0546 13.2447 12.0739 13.2438 12.1434 13.311C12.2414 13.4058 12.3558 13.5541 12.5748 13.8447L13.7727 12.942ZM12.3177 11.7678C12.1228 11.731 11.8706 11.7303 11.6755 11.7663L11.9472 13.2415C11.9411 13.2426 11.9432 13.2419 11.9544 13.241C11.9647 13.2402 11.9781 13.2397 11.9931 13.2397C12.008 13.2398 12.0214 13.2404 12.0317 13.2412C12.0429 13.2421 12.045 13.2428 12.0389 13.2417L12.3177 11.7678ZM11.6755 11.7663C11.3116 11.8333 11.0378 12.004 10.8061 12.2255C10.6034 12.4194 10.4094 12.6777 10.2179 12.9293L11.4115 13.8378C11.6309 13.5496 11.7451 13.4031 11.8428 13.3096C11.9117 13.2437 11.9307 13.2445 11.9472 13.2415L11.6755 11.7663ZM10.2179 12.9293C9.78096 13.5034 9.29675 14.2188 8.91916 14.9907C8.54533 15.7549 8.25 16.6267 8.25 17.5001H9.75C9.75 16.9474 9.94271 16.3119 10.2666 15.6498C10.5867 14.9954 11.0098 14.3655 11.4115 13.8378L10.2179 12.9293ZM8.25 17.5001C8.25 18.9343 8.74811 20.0124 9.5 20.7301C10.2366 21.4332 11.1754 21.7501 12 21.7501V20.2501C11.5389 20.2501 10.9776 20.0669 10.5357 19.6451C10.109 19.2378 9.75 18.5658 9.75 17.5001H8.25ZM4.75 13.6112C4.75 16.4407 5.7527 18.4929 7.19458 19.834C8.61973 21.1595 10.4311 21.7501 12 21.7501V20.2501C10.7831 20.2501 9.34456 19.7851 8.21614 18.7356C7.10444 17.7017 6.25 16.0595 6.25 13.6112H4.75ZM9.05501 4.18778C8.10733 5.3758 7.04005 6.87548 6.20672 8.49117C5.3781 10.0977 4.75 11.8777 4.75 13.6112H6.25C6.25 12.2178 6.76273 10.6855 7.53985 9.17876C8.31226 7.68116 9.31564 6.26646 10.2276 5.12317L9.05501 4.18778ZM11.4998 2.21794C10.9579 2.31504 10.543 2.56173 10.1625 2.91283C9.80993 3.23821 9.45766 3.68302 9.05501 4.18778L10.2276 5.12317C10.658 4.58361 10.9306 4.24516 11.1798 4.01519C11.4011 3.81092 11.5651 3.73012 11.7644 3.69442L11.4998 2.21794ZM12.4847 2.22064C12.1913 2.1664 11.7936 2.16531 11.4998 2.21794L11.7644 3.69442C11.8804 3.67363 12.0961 3.67423 12.2121 3.69565L12.4847 2.22064ZM14.9246 4.21146C14.5227 3.70193 14.1716 3.25349 13.82 2.92506C13.4409 2.57093 13.0268 2.32085 12.4847 2.22064L12.2121 3.69565C12.4104 3.73232 12.5744 3.81415 12.796 4.02121C13.0452 4.25397 13.3175 4.59599 13.7469 5.1404L14.9246 4.21146ZM19.25 13.6112C19.25 11.9174 18.6145 10.1488 17.7826 8.54444C16.945 6.92895 15.8732 5.41407 14.9246 4.21146L13.7469 5.1404C14.6621 6.30076 15.6725 7.73351 16.451 9.23491C17.2353 10.7474 17.75 12.2649 17.75 13.6112H19.25Z" fill="#292556"/>
</svg>
