<svg width="24" height="24" viewBox="0 0 24 24" fill="none" xmlns="http://www.w3.org/2000/svg">
<path fill-rule="evenodd" clip-rule="evenodd" d="M16.9157 5.8897C16.6594 5.83694 16.5312 5.81056 16.4086 5.77422C15.9551 5.63979 15.5398 5.40002 15.1967 5.07449C15.1039 4.9865 15.017 4.8887 14.8431 4.69311V4.69311C14.2963 4.07788 14.0229 3.77027 13.7479 3.57398C12.7052 2.82975 11.3049 2.82975 10.2622 3.57398C9.98718 3.77027 9.71377 4.07788 9.16695 4.69311V4.69311C8.9931 4.8887 8.90618 4.9865 8.81342 5.07449C8.47024 5.40002 8.05495 5.63979 7.60144 5.77422C7.47886 5.81056 7.35071 5.83694 7.0944 5.8897V5.8897C6.28818 6.05565 5.88507 6.13862 5.57758 6.27864C4.41169 6.80955 3.71156 8.0222 3.83473 9.29734C3.86722 9.63364 3.99691 10.0242 4.25631 10.8054V10.8054C4.33877 11.0538 4.38 11.1779 4.40982 11.3023C4.52015 11.7622 4.52015 12.2418 4.40982 12.7017C4.38 12.8261 4.33877 12.9502 4.25631 13.1986V13.1986C3.99691 13.9798 3.86722 14.3704 3.83473 14.7067C3.71156 15.9818 4.41169 17.1945 5.57758 17.7254C5.88507 17.8654 6.28818 17.9484 7.0944 18.1143V18.1143C7.35071 18.1671 7.47886 18.1934 7.60144 18.2298C8.05495 18.3642 8.47024 18.604 8.81342 18.9295C8.90618 19.0175 8.9931 19.1153 9.16695 19.3109V19.3109C9.71377 19.9261 9.98719 20.2337 10.2622 20.43C11.3049 21.1743 12.7052 21.1743 13.7479 20.43C14.0229 20.2337 14.2963 19.9261 14.8431 19.3109V19.3109C15.017 19.1153 15.1039 19.0175 15.1967 18.9295C15.5398 18.604 15.9551 18.3642 16.4086 18.2298C16.5312 18.1934 16.6594 18.1671 16.9157 18.1143V18.1143C17.7219 17.9484 18.125 17.8654 18.4325 17.7254C19.5984 17.1945 20.2985 15.9818 20.1753 14.7067C20.1429 14.3704 20.0132 13.9798 19.7538 13.1986V13.1986C19.6713 12.9502 19.6301 12.8261 19.6002 12.7017C19.4899 12.2418 19.4899 11.7622 19.6002 11.3023C19.6301 11.1779 19.6713 11.0538 19.7538 10.8054V10.8054C20.0132 10.0242 20.1429 9.63364 20.1753 9.29734C20.2985 8.0222 19.5984 6.80955 18.4325 6.27865C18.125 6.13863 17.7219 6.05565 16.9157 5.8897V5.8897ZM12.005 14.4443C13.3539 14.4443 14.4474 13.3509 14.4474 12.002C14.4474 10.6531 13.3539 9.55968 12.005 9.55968C10.6562 9.55968 9.56271 10.6531 9.56271 12.002C9.56271 13.3509 10.6562 14.4443 12.005 14.4443Z" fill="#292556" fill-opacity="0.18" stroke="#292556" stroke-opacity="0.18" stroke-width="1.5" stroke-linejoin="round"/>
<path d="M14.4474 12C14.4474 13.3486 13.3539 14.4419 12.005 14.4419C10.6562 14.4419 9.56271 13.3486 9.56271 12C9.56271 10.6514 10.6562 9.55814 12.005 9.55814C13.3539 9.55814 14.4474 10.6514 14.4474 12Z" stroke="#292556" stroke-width="1.5" stroke-linejoin="round"/>
<path d="M9.16693 4.69252C9.71394 4.07721 9.98744 3.76955 10.2625 3.57326C11.3051 2.82934 12.705 2.82934 13.7475 3.57326C14.0226 3.76955 14.2961 4.07721 14.8431 4.69252V4.69252C15.017 4.88804 15.1039 4.9858 15.1966 5.07375C15.5398 5.39927 15.9551 5.63901 16.4086 5.77342C16.5312 5.80973 16.6593 5.83611 16.9157 5.88887V5.88887C17.7214 6.05468 18.1242 6.13758 18.4314 6.27731C19.5981 6.80814 20.2987 8.02162 20.175 9.29747C20.1424 9.63332 20.0129 10.0234 19.7538 10.8036V10.8036C19.6714 11.0516 19.6302 11.1756 19.6004 11.2998C19.4899 11.7601 19.4899 12.2399 19.6004 12.7002C19.6302 12.8244 19.6714 12.9484 19.7538 13.1964V13.1964C20.0129 13.9766 20.1424 14.3667 20.175 14.7025C20.2987 15.9784 19.5981 17.1919 18.4314 17.7227C18.1242 17.8624 17.7214 17.9453 16.9157 18.1111V18.1111C16.6593 18.1639 16.5312 18.1903 16.4086 18.2266C15.9551 18.361 15.5398 18.6007 15.1966 18.9262C15.1039 19.0142 15.017 19.112 14.8431 19.3075V19.3075C14.2961 19.9228 14.0226 20.2305 13.7475 20.4267C12.705 21.1707 11.3051 21.1707 10.2625 20.4267C9.98744 20.2305 9.71394 19.9228 9.16693 19.3075V19.3075C8.99311 19.112 8.90621 19.0142 8.81348 18.9262C8.47027 18.6007 8.05496 18.361 7.60144 18.2266C7.4789 18.1903 7.35072 18.1639 7.09436 18.1111V18.1111C6.28868 17.9453 5.88585 17.8624 5.57872 17.7227C4.41196 17.1919 3.71137 15.9784 3.83507 14.7025C3.86763 14.3667 3.99718 13.9766 4.25628 13.1964V13.1964C4.33866 12.9484 4.37985 12.8244 4.40965 12.7002C4.52013 12.2399 4.52013 11.7601 4.40965 11.2998C4.37985 11.1756 4.33866 11.0516 4.25628 10.8036V10.8036C3.99718 10.0234 3.86763 9.63332 3.83507 9.29747C3.71137 8.02163 4.41197 6.80814 5.57872 6.27731C5.88585 6.13758 6.28868 6.05468 7.09436 5.88887V5.88887C7.35072 5.83611 7.4789 5.80973 7.60144 5.77342C8.05496 5.63901 8.47027 5.39927 8.81348 5.07375C8.90621 4.9858 8.99311 4.88804 9.16693 4.69252V4.69252Z" stroke="#292556" stroke-width="1.5" stroke-linejoin="round"/>
</svg>
