<svg width="24" height="24" viewBox="0 0 24 24" fill="none" xmlns="http://www.w3.org/2000/svg">
<path fill-rule="evenodd" clip-rule="evenodd" d="M9.99905 4.2936V4.25C9.99905 3.14543 10.8945 2.25 11.9991 2.25C13.1036 2.25 13.9991 3.14543 13.9991 4.25V4.29294C16.3219 5.08517 17.9267 7.38584 17.6993 9.9788C17.5717 11.4329 18.0276 12.8781 18.9665 13.9957L19.4575 14.5804C20.7612 16.1323 19.6578 18.5 17.631 18.5H14.2625H9.73619H6.36902C4.34222 18.5 3.2389 16.1323 4.54252 14.5804L5.0336 13.9957C5.97246 12.8781 6.42835 11.4329 6.3008 9.9788C6.07341 7.38656 7.67723 5.08645 9.99905 4.2936Z" fill="#292556" fill-opacity="0.18"/>
<path d="M14 20H10C10 21.1046 10.8954 22 12 22C13.1046 22 14 21.1046 14 20Z" fill="#292556"/>
</svg>
