<svg width="24" height="24" viewBox="0 0 24 24" fill="none" xmlns="http://www.w3.org/2000/svg">
<path d="M4.61089 12.2836C4.04593 12.8486 3.68535 13.6921 3.44063 14.5287C3.18975 15.3864 3.03213 16.3398 2.93179 17.2155C2.83106 18.0946 2.78587 18.9155 2.76573 19.5153C2.75565 19.8158 2.7518 20.0622 2.75049 20.2344C2.75565 20.7931 3.20727 21.2447 3.76594 21.2499C3.93814 21.2485 4.18454 21.2447 4.48503 21.2346C5.08486 21.2145 5.90572 21.1693 6.78488 21.0685C7.66053 20.9682 8.61394 20.8106 9.47164 20.5597C10.3083 20.315 11.1518 19.9544 11.7167 19.3895C12.9581 18.148 13.4513 16.4393 13.1756 14.848L13.1756 14.848C13.1659 14.7922 13.1611 14.7643 13.1486 14.7361C13.1446 14.7272 13.1395 14.7173 13.1345 14.7089C13.1186 14.6824 13.0972 14.6611 13.0544 14.6183L9.38208 10.9459C9.33929 10.9031 9.3179 10.8817 9.29144 10.8659C9.28305 10.8608 9.27316 10.8557 9.26421 10.8517C9.23601 10.8392 9.20812 10.8344 9.15233 10.8247L9.15231 10.8247C7.56109 10.549 5.85229 11.0422 4.61089 12.2836Z" fill="#292556" fill-opacity="0.18"/>
<path d="M16.6554 4.00802L10.6677 9.56699C10.5256 9.69891 10.4545 9.76488 10.4396 9.84683C10.4349 9.87325 10.4344 9.90028 10.4382 9.92686C10.45 10.0093 10.5185 10.0779 10.6556 10.215L13.7858 13.3451C13.9229 13.4822 13.9914 13.5507 14.0738 13.5626C14.1004 13.5664 14.1274 13.5659 14.1539 13.5611C14.2358 13.5462 14.3018 13.4752 14.4337 13.3332L19.9941 7.34782C20.3694 6.94383 20.5571 6.74183 20.6663 6.53211C20.9405 6.0054 20.9289 5.37557 20.6355 4.8593C20.5187 4.65373 20.3237 4.45878 19.9338 4.06886C19.544 3.67907 19.3491 3.48417 19.1436 3.36735C18.6274 3.07398 17.9978 3.06229 17.4711 3.33631C17.2614 3.44542 17.0594 3.63295 16.6554 4.00802Z" fill="#292556" fill-opacity="0.18"/>
<path d="M7.47761 2.8181C7.39414 2.48422 7.09415 2.25 6.75 2.25C6.40585 2.25 6.10586 2.48422 6.02239 2.8181C5.91858 3.23333 5.7817 3.47014 5.62592 3.62592C5.47014 3.7817 5.23333 3.91858 4.8181 4.02239C4.48422 4.10586 4.25 4.40585 4.25 4.75C4.25 5.09415 4.48422 5.39414 4.8181 5.47761C5.23333 5.58142 5.47014 5.7183 5.62592 5.87408C5.7817 6.02986 5.91858 6.26667 6.02239 6.6819C6.10586 7.01578 6.40585 7.25 6.75 7.25C7.09415 7.25 7.39414 7.01578 7.47761 6.6819C7.58142 6.26667 7.7183 6.02986 7.87408 5.87408C8.02986 5.7183 8.26667 5.58142 8.6819 5.47761C9.01578 5.39414 9.25 5.09415 9.25 4.75C9.25 4.40585 9.01578 4.10586 8.6819 4.02239C8.26667 3.91858 8.02986 3.7817 7.87408 3.62592C7.7183 3.47014 7.58142 3.23333 7.47761 2.8181Z" fill="#292556"/>
<path d="M17.9776 17.3181C17.8941 16.9842 17.5942 16.75 17.25 16.75C16.9058 16.75 16.6059 16.9842 16.5224 17.3181C16.4186 17.7333 16.2817 17.9701 16.1259 18.1259C15.9701 18.2817 15.7333 18.4186 15.3181 18.5224C14.9842 18.6059 14.75 18.9058 14.75 19.25C14.75 19.5942 14.9842 19.8941 15.3181 19.9776C15.7333 20.0814 15.9701 20.2183 16.1259 20.3741C16.2817 20.5299 16.4186 20.7667 16.5224 21.1819C16.6059 21.5158 16.9058 21.75 17.25 21.75C17.5942 21.75 17.8941 21.5158 17.9776 21.1819C18.0814 20.7667 18.2183 20.5299 18.3741 20.3741C18.5299 20.2183 18.7667 20.0814 19.1819 19.9776C19.5158 19.8941 19.75 19.5942 19.75 19.25C19.75 18.9058 19.5158 18.6059 19.1819 18.5224C18.7667 18.4186 18.5299 18.2817 18.3741 18.1259C18.2183 17.9701 18.0814 17.7333 17.9776 17.3181Z" fill="#292556"/>
</svg>
