<svg width="24" height="24" viewBox="0 0 24 24" fill="none" xmlns="http://www.w3.org/2000/svg">
<path d="M2.47802 7.91553C2.25 8.79884 2.25 9.94652 2.25 12.0001C2.25 14.3277 2.25 15.4915 2.582 16.4257C3.16141 18.056 4.44414 19.3387 6.07444 19.9181C7.0086 20.2501 8.1724 20.2501 10.5 20.2501H13.5C15.8276 20.2501 16.9914 20.2501 17.9256 19.9181C19.5559 19.3387 20.8386 18.056 21.418 16.4257C21.75 15.4915 21.75 14.3277 21.75 12.0001C21.75 9.94654 21.75 8.79886 21.522 7.91555L17.754 10.6921C16.6402 11.5128 15.7625 12.1596 15.002 12.6179C14.2228 13.0875 13.5145 13.3927 12.7288 13.493C12.2452 13.5548 11.7557 13.5548 11.2721 13.4931C10.4864 13.3928 9.77801 13.0876 8.99883 12.6181C8.23833 12.1598 7.36057 11.513 6.24672 10.6923L2.47802 7.91553Z" fill="#292556" fill-opacity="0.18"/>
<path d="M3.09186 6.50448L7.10646 9.46247C8.25692 10.3101 9.07916 10.915 9.77305 11.3332C10.4551 11.7442 10.9602 11.941 11.4621 12.005C11.8195 12.0507 12.1813 12.0507 12.5387 12.005C13.0406 11.9409 13.5457 11.7441 14.2277 11.3331C14.9216 10.9149 15.7438 10.31 16.8942 9.46225L20.9082 6.50449C20.2273 5.38896 19.1792 4.52754 17.9256 4.082C16.9914 3.75 15.8276 3.75 13.5 3.75L10.5 3.75C8.17241 3.75 7.00861 3.75 6.07445 4.082C4.82082 4.52754 3.7727 5.38895 3.09186 6.50448Z" fill="#292556"/>
</svg>
