<svg width="24" height="24" viewBox="0 0 24 24" fill="none" xmlns="http://www.w3.org/2000/svg">
<path fill-rule="evenodd" clip-rule="evenodd" d="M12.1508 2.8571C12.0505 2.84842 11.9495 2.84842 11.8492 2.8571C11.5405 2.8838 11.2597 3.01392 10.9983 3.13503L10.9337 3.1649L2.68639 6.9613C2.42281 7.08263 2.25286 7.34512 2.25004 7.63528C2.24721 7.92544 2.41202 8.19119 2.67319 8.31763L10.8889 12.2951L10.9562 12.3278C11.2277 12.4602 11.5195 12.6024 11.8424 12.6316C11.9473 12.6411 12.0528 12.6411 12.1576 12.6316C12.4805 12.6024 12.7723 12.4601 13.0439 12.3278L13.1112 12.2951L20.25 8.83895V17.3497C20.25 17.5559 20.2496 17.672 20.2434 17.7592C20.238 17.8354 20.2303 17.8472 20.233 17.8403C20.2274 17.8548 20.2205 17.8686 20.2123 17.8818C20.2162 17.8755 20.2113 17.8887 20.1536 17.9387C20.0876 17.996 19.9949 18.066 19.83 18.1897L18.3 19.3372C17.9686 19.5858 17.9015 20.0559 18.15 20.3872C18.3985 20.7186 18.8686 20.7858 19.2 20.5372L20.73 19.3897L20.7919 19.3435L20.7919 19.3435C21.0416 19.1573 21.3099 18.9572 21.4861 18.6739C21.5432 18.582 21.5917 18.485 21.631 18.3841C21.7519 18.0731 21.751 17.7384 21.7501 17.427L21.75 17.3497V7.64258C21.75 7.34977 21.5796 7.08373 21.3136 6.9613L13.0663 3.1649L13.0017 3.13503C12.7403 3.01392 12.4595 2.8838 12.1508 2.8571Z" fill="#292556" fill-opacity="0.18"/>
<path d="M18.9081 15.6508V11.0503L13.1827 13.8396C12.6675 14.0906 12.4099 14.2161 12.136 14.241C12.0456 14.2492 11.9547 14.2492 11.8644 14.241C11.5905 14.2161 11.3329 14.0906 10.8177 13.8396L5.09229 11.0503V15.6508C5.09229 15.9906 5.09229 16.1604 5.15795 16.3069C5.17954 16.355 5.20614 16.4007 5.23731 16.4432C5.33217 16.5727 5.47984 16.6566 5.7752 16.8245L11.3331 19.9835C11.6219 20.1476 11.7663 20.2297 11.9228 20.2459C11.9743 20.2513 12.0261 20.2513 12.0776 20.2459C12.234 20.2297 12.3784 20.1476 12.6673 19.9835L18.2252 16.8245C18.5205 16.6566 18.6682 16.5727 18.763 16.4432C18.7942 16.4007 18.8208 16.355 18.8424 16.3069C18.9081 16.1604 18.9081 15.9906 18.9081 15.6508Z" fill="#292556"/>
</svg>
