<svg width="24" height="24" viewBox="0 0 24 24" fill="none" xmlns="http://www.w3.org/2000/svg">
<path d="M13.1 8.25C13.1 6.73122 14.3312 5.5 15.85 5.5C17.3688 5.5 18.6 6.73122 18.6 8.25C18.6 9.76878 17.3688 11 15.85 11C14.3312 11 13.1 9.76878 13.1 8.25Z" fill="#292556"/>
<path d="M5.59998 6.25C5.59998 4.73122 6.83119 3.5 8.34998 3.5C9.86876 3.5 11.1 4.73122 11.1 6.25C11.1 7.76878 9.86876 9 8.34998 9C6.83119 9 5.59998 7.76878 5.59998 6.25Z" fill="#292556"/>
<path fill-rule="evenodd" clip-rule="evenodd" d="M13.9456 13.5311C13.9873 13.7113 14.0339 13.9318 14.0948 14.2194L14.0948 14.2195C14.2214 14.8183 14.2847 15.1178 14.296 15.3613C14.3664 16.8823 13.2862 18.2149 11.7835 18.4607C11.552 18.4985 11.2598 18.4999 10.6926 18.5C10.7875 18.7832 11.0533 19 11.386 19H18.0396C18.6217 19 18.8153 18.9973 18.9415 18.9763C19.9126 18.8149 20.5595 17.8845 20.3727 16.9179C20.3484 16.7923 20.2836 16.6099 20.0809 16.0643C19.9163 15.6211 19.8523 15.4515 19.7815 15.3085C19.287 14.3092 18.3147 13.6332 17.2058 13.5175C17.047 13.501 16.8658 13.5 16.393 13.5H14.6075C14.387 13.5 14.3033 13.5002 14.2218 13.5046C14.1294 13.5095 14.0372 13.5183 13.9456 13.5311ZM13.3688 12.1119C12.6602 10.98 11.4718 10.2044 10.1118 10.0346C9.83428 10 9.51944 10 8.88974 10H7.73584C7.08566 10 6.76058 10 6.46819 10.0385C4.96379 10.2365 3.6605 11.1794 3.00172 12.5463C2.87368 12.812 2.77197 13.1207 2.56855 13.7383L2.56855 13.7383C2.32583 14.4751 2.20447 14.8435 2.16866 15.1384C1.97968 16.6948 3.02105 18.1343 4.55846 18.4417C4.84974 18.5 5.23763 18.5 6.01341 18.5H9.16557C9.27884 19.5846 10.1913 20.5 11.386 20.5H18.0396L18.1195 20.5H18.1195C18.5898 20.5001 18.9214 20.5002 19.1875 20.456C20.991 20.1562 22.1924 18.4283 21.8455 16.6333C21.7943 16.3685 21.6788 16.0577 21.5149 15.6169L21.5149 15.6169L21.4871 15.542L21.4714 15.4998C21.3277 15.1129 21.2357 14.8651 21.1259 14.6432L20.4858 14.96L21.1259 14.6432C20.4031 13.1827 18.9821 12.1946 17.3613 12.0256C17.1152 11.9999 16.8508 12 16.438 12L16.393 12H14.6075L14.5875 12C14.3935 12 14.2683 12 14.1424 12.0067C13.882 12.0205 13.6233 12.0557 13.3688 12.1119Z" fill="#292556" fill-opacity="0.18"/>
</svg>
