<svg width="24" height="24" viewBox="0 0 24 24" fill="none" xmlns="http://www.w3.org/2000/svg">
<path d="M2.25 12.0001C2.25 17.3849 6.61522 21.7501 12 21.7501C16.567 21.7501 20.4006 18.61 21.4597 14.3711C21.6257 13.7068 21.7086 13.3747 21.5327 13.0379C21.4825 12.9419 21.3914 12.8252 21.3104 12.7533C21.0263 12.501 20.6322 12.501 19.844 12.501H13.3C12.5501 12.501 12.1751 12.501 11.9122 12.31C11.8273 12.2483 11.7527 12.1737 11.691 12.0888C11.5 11.8259 11.5 11.4509 11.5 10.701V4.15591C11.5 3.36774 11.5 2.97365 11.2477 2.68956C11.1758 2.60857 11.0591 2.51746 10.9631 2.46729C10.6263 2.29134 10.2942 2.37427 9.63002 2.54014C5.39056 3.59884 2.25 7.43271 2.25 12.0001Z" fill="#292556" fill-opacity="0.18"/>
<path d="M13 9.19981V4.32444C13 3.48003 13 3.05783 13.2763 2.76808C13.3548 2.68583 13.4813 2.59574 13.5847 2.54853C13.9489 2.38225 14.2968 2.50273 14.9926 2.74369C17.9219 3.75814 20.2417 6.07789 21.2562 9.00719C21.4971 9.703 21.6176 10.0509 21.4513 10.4151C21.4041 10.5185 21.314 10.6451 21.2318 10.7235C20.942 10.9998 20.5198 10.9998 19.6754 10.9998H14.8C14.0501 10.9998 13.6751 10.9998 13.4122 10.8088C13.3273 10.7472 13.2527 10.6725 13.191 10.5876C13 10.3247 13 9.94976 13 9.19981Z" fill="#292556"/>
</svg>
