<svg width="24" height="24" viewBox="0 0 24 24" fill="none" xmlns="http://www.w3.org/2000/svg">
<path d="M9.00012 16V16C9.00012 17.8692 9.00012 18.8038 9.40205 19.5C9.66535 19.9561 10.0441 20.3348 10.5001 20.5981C11.1963 21 12.1309 21 14.0001 21H15.6001C17.85 21 18.9749 21 19.7635 20.4271C20.0182 20.242 20.2421 20.018 20.4272 19.7634C21.0001 18.9748 21.0001 17.8498 21.0001 15.6V13.4C21.0001 11.1502 21.0001 10.0252 20.4272 9.23664C20.2421 8.98196 20.0182 8.75799 19.7635 8.57295C18.9749 8 17.85 8 15.6001 8H15.0001M9.60012 16H8.40012C6.15028 16 5.02536 16 4.23677 15.4271C3.98208 15.242 3.75811 15.018 3.57307 14.7634C3.00012 13.9748 3.00012 12.8498 3.00012 10.6V8.4C3.00012 6.15016 3.00012 5.02524 3.57307 4.23664C3.75811 3.98196 3.98208 3.75799 4.23677 3.57295C5.02536 3 6.15028 3 8.40012 3H9.60012C11.85 3 12.9749 3 13.7635 3.57295C14.0182 3.75799 14.2421 3.98196 14.4272 4.23664C15.0001 5.02524 15.0001 6.15016 15.0001 8.4V10.6C15.0001 12.8498 15.0001 13.9748 14.4272 14.7634C14.2421 15.018 14.0182 15.242 13.7635 15.4271C12.9749 16 11.85 16 9.60012 16Z" stroke="#292556" stroke-width="1.5" stroke-linejoin="round"/>
</svg>
