<svg width="24" height="24" viewBox="0 0 24 24" fill="none" xmlns="http://www.w3.org/2000/svg">
<path fill-rule="evenodd" clip-rule="evenodd" d="M8.14264 5.38692C6.50782 7.64353 4.75 10.7159 4.75 13.6117C4.75 16.4411 5.7527 18.4934 7.19458 19.8344C8.61973 21.1599 10.4311 21.7505 12 21.7505C15.1605 21.7505 19.25 19.1742 19.25 13.6117C19.25 12.1846 18.7991 10.7084 18.166 9.32885C17.5301 7.94282 16.689 6.60845 15.8593 5.45252C15.2961 4.66777 14.7218 3.94573 14.2168 3.34311C14.0009 3.11498 13.893 3.00091 13.7941 2.91462C12.7637 2.01522 11.229 2.00971 10.1922 2.9017C10.0927 2.98727 9.97886 3.10588 9.75113 3.34311C9.25719 3.92424 8.70028 4.61718 8.14264 5.38692ZM15.75 17.6129C15.75 20.3024 13.6071 21.5018 12 21.5018C10.3929 21.5018 8.25 20.3907 8.25 17.6129C8.25 16.2491 9.15395 14.7514 10.0742 13.58C10.7063 12.7754 11.0223 12.3732 11.6754 12.2544C11.844 12.2238 12.1378 12.2242 12.3063 12.2553C12.959 12.3759 13.2762 12.7821 13.9108 13.5944C14.8362 14.7792 15.75 16.2853 15.75 17.6129Z" fill="#292556"/>
</svg>
