<svg width="24" height="24" viewBox="0 0 24 24" fill="none" xmlns="http://www.w3.org/2000/svg">
<path d="M14.4474 12C14.4474 13.3486 13.3539 14.4419 12.005 14.4419C10.6562 14.4419 9.56271 13.3486 9.56271 12C9.56271 10.6514 10.6562 9.55814 12.005 9.55814C13.3539 9.55814 14.4474 10.6514 14.4474 12Z" stroke="#292556" stroke-width="1.5" stroke-linejoin="round"/>
<path d="M9.16693 4.69252C9.71394 4.07721 9.98744 3.76955 10.2625 3.57326C11.3051 2.82934 12.705 2.82934 13.7475 3.57326C14.0226 3.76955 14.2961 4.07721 14.8431 4.69252V4.69252C15.017 4.88804 15.1039 4.9858 15.1966 5.07375C15.5398 5.39927 15.9551 5.63901 16.4086 5.77342C16.5312 5.80973 16.6593 5.83611 16.9157 5.88887V5.88887C17.7214 6.05468 18.1242 6.13758 18.4314 6.27731C19.5981 6.80814 20.2987 8.02162 20.175 9.29747C20.1424 9.63332 20.0129 10.0234 19.7538 10.8036V10.8036C19.6714 11.0516 19.6302 11.1756 19.6004 11.2998C19.4899 11.7601 19.4899 12.2399 19.6004 12.7002C19.6302 12.8244 19.6714 12.9484 19.7538 13.1964V13.1964C20.0129 13.9766 20.1424 14.3667 20.175 14.7025C20.2987 15.9784 19.5981 17.1919 18.4314 17.7227C18.1242 17.8624 17.7214 17.9453 16.9157 18.1111V18.1111C16.6593 18.1639 16.5312 18.1903 16.4086 18.2266C15.9551 18.361 15.5398 18.6007 15.1966 18.9262C15.1039 19.0142 15.017 19.112 14.8431 19.3075V19.3075C14.2961 19.9228 14.0226 20.2305 13.7475 20.4267C12.705 21.1707 11.3051 21.1707 10.2625 20.4267C9.98744 20.2305 9.71394 19.9228 9.16693 19.3075V19.3075C8.99311 19.112 8.90621 19.0142 8.81348 18.9262C8.47027 18.6007 8.05496 18.361 7.60144 18.2266C7.4789 18.1903 7.35072 18.1639 7.09436 18.1111V18.1111C6.28868 17.9453 5.88585 17.8624 5.57872 17.7227C4.41196 17.1919 3.71137 15.9784 3.83507 14.7025C3.86763 14.3667 3.99718 13.9766 4.25628 13.1964V13.1964C4.33866 12.9484 4.37985 12.8244 4.40965 12.7002C4.52013 12.2399 4.52013 11.7601 4.40965 11.2998C4.37985 11.1756 4.33866 11.0516 4.25628 10.8036V10.8036C3.99718 10.0234 3.86763 9.63332 3.83507 9.29747C3.71137 8.02163 4.41197 6.80814 5.57872 6.27731C5.88585 6.13758 6.28868 6.05468 7.09436 5.88887V5.88887C7.35072 5.83611 7.4789 5.80973 7.60144 5.77342C8.05496 5.63901 8.47027 5.39927 8.81348 5.07375C8.90621 4.9858 8.99311 4.88804 9.16693 4.69252V4.69252Z" stroke="#292556" stroke-width="1.5" stroke-linejoin="round"/>
</svg>
