<svg width="24" height="24" viewBox="0 0 24 24" fill="none" xmlns="http://www.w3.org/2000/svg">
<path d="M8.86394 3.86479C9.36253 3.30382 9.61183 3.02334 9.85324 2.83255C11.1254 1.82715 12.9215 1.82715 14.1936 2.83255C14.435 3.02334 14.6843 3.30382 15.1829 3.86479V3.86479C15.3415 4.04319 15.4208 4.1324 15.5039 4.2142C15.9285 4.63223 16.4528 4.93494 17.0271 5.09365C17.1395 5.1247 17.2564 5.14876 17.4902 5.19689V5.19689C18.2253 5.3482 18.5929 5.42386 18.8788 5.53753C20.3856 6.13653 21.2836 7.69202 21.049 9.29642C21.0045 9.60088 20.8862 9.95702 20.6497 10.6693V10.6693C20.5745 10.8958 20.5369 11.0091 20.5076 11.122C20.3579 11.6987 20.3579 12.3041 20.5076 12.8808C20.5369 12.9937 20.5745 13.107 20.6497 13.3335V13.3335C20.8862 14.0458 21.0045 14.4019 21.049 14.7064C21.2836 16.3108 20.3856 17.8663 18.8788 18.4653C18.5929 18.5789 18.2253 18.6546 17.4902 18.8059V18.8059C17.2564 18.854 17.1395 18.8781 17.0271 18.9092C16.4528 19.0679 15.9285 19.3706 15.5039 19.7886C15.4208 19.8704 15.3415 19.9596 15.1829 20.138V20.138C14.6843 20.699 14.435 20.9795 14.1936 21.1703C12.9215 22.1757 11.1254 22.1757 9.85324 21.1703C9.61183 20.9795 9.36253 20.699 8.86394 20.138V20.138C8.70537 19.9596 8.62608 19.8704 8.54299 19.7886C8.11838 19.3706 7.59408 19.0679 7.01975 18.9092C6.90736 18.8781 6.79046 18.854 6.55667 18.8059V18.8059C5.82157 18.6546 5.45401 18.5789 5.16807 18.4653C3.66131 17.8663 2.76324 16.3108 2.99788 14.7064C3.0424 14.4019 3.16066 14.0458 3.39717 13.3335V13.3335C3.47239 13.107 3.51 12.9937 3.5393 12.8808C3.68902 12.3041 3.68902 11.6987 3.5393 11.122C3.51 11.0091 3.47239 10.8958 3.39717 10.6693V10.6693C3.16066 9.95703 3.0424 9.60089 2.99788 9.29642C2.76324 7.69202 3.66131 6.13653 5.16808 5.53753C5.45401 5.42386 5.82157 5.3482 6.55667 5.19689V5.19689C6.79046 5.14876 6.90736 5.1247 7.01975 5.09365C7.59408 4.93494 8.11838 4.63223 8.54299 4.2142C8.62608 4.1324 8.70537 4.04319 8.86394 3.86479V3.86479Z" fill="#292556" fill-opacity="0.18"/>
<path d="M14.25 12C14.25 13.2426 13.2426 14.25 12 14.25C10.7574 14.25 9.75 13.2426 9.75 12C9.75 10.7574 10.7574 9.75 12 9.75C13.2426 9.75 14.25 10.7574 14.25 12Z" fill="#292556"/>
</svg>
