<svg width="24" height="24" viewBox="0 0 24 24" fill="none" xmlns="http://www.w3.org/2000/svg">
<path d="M2.25 11.9989C2.25 11.2421 2.33278 10.5056 2.48954 9.79789C3.52877 11.4663 4.9817 12.8439 6.70303 13.78C6.89642 15.2739 7.31649 16.8487 7.91754 18.3016C8.4287 19.5371 9.08647 20.7221 9.87759 21.7031C5.52106 20.7166 2.25 16.7557 2.25 11.9989Z" fill="#292556"/>
<path d="M6.58273 11.9506C5.09625 10.9362 3.89759 9.51534 3.14064 7.84112C4.39913 5.05796 6.8817 2.97297 9.87759 2.29461C9.08647 3.27561 8.4287 4.46057 7.91754 5.69612C7.07721 7.72736 6.59064 9.99708 6.58273 11.9506Z" fill="#292556"/>
<path d="M9.30361 6.26955C10.0005 4.58507 10.9366 3.14309 11.9987 2.24951C13.0609 3.14309 13.997 4.58507 14.6939 6.26955C15.4763 8.16072 15.9149 10.2567 15.9149 11.9989C15.9149 12.2596 15.905 12.5282 15.8857 12.8029C14.6941 13.3316 13.3793 13.6245 11.9988 13.6245C10.6182 13.6245 9.3034 13.3316 8.11178 12.8028C8.09246 12.5282 8.08264 12.2596 8.08264 11.9989C8.08264 10.2567 8.52122 8.16072 9.30361 6.26955Z" fill="#292556"/>
<path d="M11.9988 15.1245C13.2808 15.1245 14.512 14.9065 15.6589 14.5054C15.4524 15.5795 15.1255 16.685 14.6939 17.7282C13.997 19.4126 13.0609 20.8546 11.9987 21.7482C10.9366 20.8546 10.0005 19.4126 9.30361 17.7282C8.87203 16.685 8.54507 15.5794 8.33862 14.5054C9.4855 14.9065 10.7167 15.1245 11.9988 15.1245Z" fill="#292556"/>
<path d="M16.0799 18.3016C15.5688 19.5371 14.911 20.7221 14.1199 21.7031C18.4764 20.7166 21.7475 16.7557 21.7475 11.9989C21.7475 11.2421 21.6647 10.5056 21.508 9.79792C20.4687 11.4663 19.0158 12.844 17.2944 13.78C17.1011 15.2739 16.681 16.8487 16.0799 18.3016Z" fill="#292556"/>
<path d="M17.4148 11.9506C18.9012 10.9362 20.0999 9.51535 20.8569 7.84115C19.5984 5.05797 17.1158 2.97297 14.1199 2.29461C14.911 3.27561 15.5688 4.46057 16.0799 5.69612C16.9203 7.72736 17.4069 9.99709 17.4148 11.9506Z" fill="#292556"/>
</svg>
