<svg width="24" height="24" viewBox="0 0 24 24" fill="none" xmlns="http://www.w3.org/2000/svg">
<path d="M18.1581 9.0188V14.429C18.1581 15.1084 18.1581 15.4482 18.0267 15.741C17.9836 15.8373 17.9304 15.9287 17.868 16.0138C17.6783 16.2727 17.383 16.4406 16.7922 16.7763L13.3344 18.7417C12.7567 19.07 12.4679 19.2342 12.155 19.2666C12.0521 19.2773 11.9483 19.2773 11.8454 19.2666C11.5325 19.2342 11.2437 19.07 10.666 18.7417L7.20812 16.7763C6.61741 16.4406 6.32205 16.2727 6.13235 16.0138C6.06999 15.9287 6.01679 15.8373 5.97362 15.741C5.84229 15.4482 5.84229 15.1084 5.84229 14.429V9.0188M21.0002 7.64286V16.9C21.0002 17.4876 21.0002 17.7814 20.8982 18.0437C20.8645 18.1302 20.823 18.2134 20.7739 18.2922C20.6253 18.5311 20.3903 18.7074 19.9202 19.06L18.7502 19.9375M21.0002 7.64286L13.1767 11.4304C12.664 11.6786 12.4076 11.8027 12.1353 11.8274C12.0454 11.8355 11.955 11.8355 11.8651 11.8274C11.5927 11.8027 11.3364 11.6786 10.8237 11.4304L3.00018 7.64286L10.8712 4.01969C11.364 3.79283 11.6105 3.6794 11.8709 3.65687C11.9569 3.64943 12.0434 3.64943 12.1294 3.65687C12.3899 3.6794 12.6363 3.79283 13.1292 4.01969L14.4726 4.63808M21.0002 7.64286L18.1061 6.31065" stroke="#292556" stroke-width="1.5" stroke-linecap="round" stroke-linejoin="round"/>
</svg>
