<svg width="24" height="24" viewBox="0 0 24 24" fill="none" xmlns="http://www.w3.org/2000/svg">
<path d="M5 16.2505V16.2505C4.21566 16.2505 3.48796 15.7852 3.2902 15.0262C3.10081 14.2993 3 13.5367 3 12.7505C3 7.77993 7.02944 3.75049 12 3.75049C13.5651 3.75049 15.0369 4.15 16.319 4.8526M19 16.2505V16.2505C19.7843 16.2505 20.512 15.7852 20.7098 15.0262C20.8992 14.2993 21 13.5367 21 12.7505C21 10.7956 20.3767 8.98627 19.3181 7.5104M17 20.2505V20.2505C18.1046 20.2505 19 19.3551 19 18.2505V14.2505C19 13.1459 18.1046 12.2505 17 12.2505V12.2505C15.8954 12.2505 15 13.1459 15 14.2505V18.2505C15 19.3551 15.8954 20.2505 17 20.2505ZM7 20.2505V20.2505C8.10457 20.2505 9 19.3551 9 18.2505V14.2505C9 13.1459 8.10457 12.2505 7 12.2505V12.2505C5.89543 12.2505 5 13.1459 5 14.2505V18.2505C5 19.3551 5.89543 20.2505 7 20.2505Z" stroke="#292556" stroke-width="1.5" stroke-linecap="round" stroke-linejoin="round"/>
</svg>
