<svg width="24" height="24" viewBox="0 0 24 24" fill="none" xmlns="http://www.w3.org/2000/svg">
<path d="M8.87705 16.7231L5.80114 19.7991C5.05914 20.5411 3.85613 20.5411 3.11413 19.7991C2.37214 19.0571 2.37214 17.854 3.11413 17.112L6.19005 14.0361L8.87705 16.7231Z" fill="#292556"/>
<path d="M12.3706 18.4609L19.1457 11.6858C21.8703 8.96123 21.8703 4.5438 19.1457 1.81922C18.9414 1.61487 18.6101 1.61487 18.4057 1.81922L6.18921 14.0357L9.58332 17.4298L10.6144 18.4609C10.9394 18.7859 11.1019 18.9484 11.2922 19.0011C11.4233 19.0374 11.5617 19.0374 11.6928 19.0011C11.8832 18.9484 12.0457 18.7859 12.3706 18.4609Z" fill="#292556" fill-opacity="0.18"/>
</svg>
