<svg width="24" height="24" viewBox="0 0 24 24" fill="none" xmlns="http://www.w3.org/2000/svg">
<path d="M15.0274 19.1665C14.6201 19.5249 14.2277 19.8496 13.8681 20.1353C13.1647 20.6939 12.813 20.9732 12.2678 21.0468C12.1166 21.0673 11.8836 21.0673 11.7325 21.0469C11.1872 20.9732 10.8361 20.6944 10.1338 20.1367C7.98521 18.4306 4.66528 15.3259 4 12C2.99984 7 7.02944 3 12 3C16.9706 3 20.9999 7 20 12C19.6976 13.5121 18.8465 14.9784 17.8062 16.2884M14.9999 11.15C14.9999 12.8069 13.6567 14.15 11.9999 14.15C10.343 14.15 8.99988 12.8069 8.99988 11.15C8.99988 9.49315 10.343 8.15 11.9999 8.15C13.6567 8.15 14.9999 9.49315 14.9999 11.15Z" stroke="#292556" stroke-width="1.5" stroke-linecap="round" stroke-linejoin="round"/>
</svg>
