<svg width="24" height="24" viewBox="0 0 24 24" fill="none" xmlns="http://www.w3.org/2000/svg">
<path d="M20.2402 6.75391C21.2543 9.81065 21.2543 11.8485 20.2402 14.9052" stroke="#292556" stroke-width="1.5" stroke-linecap="round" stroke-linejoin="round"/>
<path d="M2.25023 12.9738C2.25031 14.0922 3.15691 14.9987 4.27523 14.9987L4.25626 19.491C4.25101 20.7361 5.2592 21.748 6.50427 21.7474C7.74472 21.7467 8.74996 20.741 8.74996 19.5005V15.1104H9.99976V6.55976H6.46953C5.09934 6.55976 4.41425 6.55976 3.87937 6.79842C3.26013 7.07474 2.76481 7.5701 2.48854 8.18936C2.24991 8.72425 2.24996 9.40934 2.25007 10.7795L2.25023 12.9738Z" fill="#292556"/>
<path d="M11.4999 5.38126C13.9577 3.22779 15.1866 2.15105 16.2337 2.15961C17.0104 2.16596 17.7482 2.50043 18.2648 3.0804C18.9613 3.86235 18.9613 5.49622 18.9613 8.76396V12.804C18.9613 16.0738 18.9613 17.7087 18.2532 18.4936C17.7486 19.053 17.0366 19.3808 16.2836 19.4006C15.2268 19.4284 13.9845 18.3656 11.4999 16.2399V5.38126Z" fill="#292556"/>
</svg>
