<svg width="24" height="24" viewBox="0 0 24 24" fill="none" xmlns="http://www.w3.org/2000/svg">
<path d="M10.4188 7.32741C10.2547 8.21835 10.0989 9.92321 10.0989 10.8293C10.0989 11.7354 10.1401 13.4695 10.4188 14.3312M10.4188 7.32741C10.0205 7.29954 8.23114 7.29899 6.50966 7.30567C5.08315 7.3112 4.3699 7.31397 3.85881 7.66908C3.66166 7.80606 3.48933 7.97905 3.35312 8.17674C3 8.6892 3 9.40523 3 10.8373V10.8373C3 12.2761 3 12.9955 3.35526 13.509C3.49231 13.707 3.66554 13.8801 3.86376 14.0169C4.37762 14.3717 5.0944 14.371 6.52794 14.3695C8.2438 14.3677 10.0219 14.3589 10.4188 14.3312M10.4188 7.32741L10.9337 6.87848M10.4188 14.3312C10.4756 14.3864 11.2442 15.0466 12.2784 15.9319C14.53 17.8593 15.6557 18.823 16.6159 18.6249C16.9145 18.5632 17.1957 18.4338 17.4367 18.247C18.2116 17.6465 18.2116 16.1635 18.2116 13.1976V6.07727C18.2116 5.09642 18.2116 4.60599 18.1207 4.3148C17.7645 3.17439 16.4944 2.5986 15.402 3.08226C15.123 3.20576 14.7542 3.52896 14.0164 4.17536V4.17536L14 4.18966M5.02851 14.3654L5.00646 19.4955C5.0029 20.325 5.67454 20.9992 6.50401 20.9987V20.9987C7.33035 20.9983 8 20.3283 8 19.502V14.3659M20.2398 6.75364C21.2539 9.81038 21.2539 11.8482 20.2398 14.9049" stroke="#292556" stroke-width="1.5" stroke-linecap="round" stroke-linejoin="round"/>
</svg>
