<svg width="24" height="24" viewBox="0 0 24 24" fill="none" xmlns="http://www.w3.org/2000/svg">
<path d="M9.60829 4.37596L4.13991 9.23675C3.33085 9.95591 2.92632 10.3155 2.75289 10.7843C2.69617 10.9377 2.65847 11.0974 2.64062 11.2599C2.58607 11.7568 2.78708 12.2594 3.1891 13.2644L4.41667 16.3333H19.5833L20.8109 13.2644L20.8109 13.2644C21.2129 12.2594 21.4139 11.7568 21.3594 11.2599C21.3415 11.0974 21.3038 10.9377 21.2471 10.7843C21.0737 10.3155 20.6692 9.95591 19.8601 9.23675L14.3917 4.37596C13.385 3.48108 12.8816 3.03363 12.2896 2.94699C12.0976 2.91888 11.9024 2.91888 11.7104 2.94699C11.1184 3.03363 10.615 3.48107 9.60829 4.37596Z" fill="#292556" fill-opacity="0.18"/>
<path d="M14.9793 21.7502H9.02061C7.9749 21.7502 7.45204 21.7502 7.0207 21.5277C6.87948 21.4549 6.74744 21.3655 6.62737 21.2614C6.26065 20.9436 6.06646 20.4581 5.6781 19.4872L4.41663 16.3335H19.5833L18.3218 19.4872C17.9335 20.4581 17.7393 20.9436 17.3725 21.2614C17.2525 21.3655 17.1204 21.4549 16.9792 21.5277C16.5479 21.7502 16.025 21.7502 14.9793 21.7502Z" fill="#292556"/>
</svg>
