<svg width="24" height="24" viewBox="0 0 24 24" fill="none" xmlns="http://www.w3.org/2000/svg">
<path d="M21 13.1255L21.75 13.1256L21 13.1255ZM18.1995 15.9974L18.1996 16.7474L18.1995 15.9974ZM15.4 13.1266L16.15 13.1268L15.4 13.1266ZM8.6 13.128L9.35 13.1281L8.6 13.128ZM3 13.1291L3.75 13.1293L3 13.1291ZM19.9657 10.8968L19.4318 11.4235C19.4488 11.4408 19.4668 11.4573 19.4854 11.4728L19.9657 10.8968ZM4.0351 10.9L4.51546 11.476C4.53412 11.4604 4.55202 11.444 4.56908 11.4267L4.0351 10.9ZM15.9311 11.4441L16.5437 11.8768C16.6824 11.6804 16.7186 11.4293 16.6409 11.2018C16.5632 10.9742 16.3811 10.7977 16.1512 10.7271L15.9311 11.4441ZM8.06955 11.4456L7.84918 10.7287C7.61939 10.7994 7.43738 10.9759 7.35974 11.2034C7.2821 11.4309 7.31823 11.6819 7.45691 11.8783L8.06955 11.4456ZM10.1077 8.88529C10.5176 8.82579 10.8017 8.44525 10.7422 8.03534C10.6827 7.62542 10.3022 7.34135 9.89227 7.40084L10.1077 8.88529ZM14.1152 7.40085C13.7053 7.34134 13.3247 7.6254 13.2652 8.03531C13.2057 8.44523 13.4898 8.82578 13.8997 8.88529L14.1152 7.40085ZM20.25 13.1254C20.2498 14.315 19.3139 15.2472 18.1993 15.2474L18.1996 16.7474C20.1778 16.747 21.7496 15.1077 21.75 13.1256L20.25 13.1254ZM18.1993 15.2474C17.0849 15.2476 16.1498 14.3162 16.15 13.1268L14.65 13.1265C14.6496 15.1087 16.2212 16.7478 18.1996 16.7474L18.1993 15.2474ZM7.85 13.1278C7.84977 14.3174 6.91393 15.2497 5.7993 15.2499L5.7996 16.7499C7.77777 16.7495 9.34962 15.1101 9.35 13.1281L7.85 13.1278ZM5.7993 15.2499C4.68492 15.2501 3.74977 14.3186 3.75 13.1293L2.25 13.129C2.24962 15.1112 3.82119 16.7503 5.7996 16.7499L5.7993 15.2499ZM19.4854 11.4728C19.95 11.8602 20.2501 12.4539 20.25 13.1254L21.75 13.1256C21.7502 11.9981 21.244 10.9861 20.4461 10.3208L19.4854 11.4728ZM3.75 13.1293C3.75013 12.4577 4.05053 11.8637 4.51546 11.476L3.55474 10.324C2.75681 10.9895 2.25021 12.0014 2.25 13.129L3.75 13.1293ZM16.15 13.1268C16.1501 12.657 16.2969 12.2262 16.5437 11.8768L15.3185 11.0114C14.8973 11.6077 14.6501 12.3394 14.65 13.1265L16.15 13.1268ZM12.0006 11.6212C13.3286 11.621 14.5847 11.8152 15.711 12.161L16.1512 10.7271C14.8782 10.3362 13.4733 10.121 12.0003 10.1212L12.0006 11.6212ZM7.45691 11.8783C7.70347 12.2274 7.85009 12.6581 7.85 13.1278L9.35 13.1281C9.35015 12.3411 9.10328 11.6093 8.68219 11.013L7.45691 11.8783ZM8.28992 12.1625C9.41636 11.8163 10.6725 11.6215 12.0006 11.6212L12.0003 10.1212C10.5272 10.1215 9.12234 10.3374 7.84918 10.7287L8.28992 12.1625ZM4.56908 11.4267C5.7996 10.179 7.75982 9.22608 10.1077 8.88529L9.89227 7.40084C7.29136 7.77836 5.0067 8.84682 3.50112 10.3734L4.56908 11.4267ZM13.8997 8.88529C16.2451 9.22579 18.2028 10.1774 19.4318 11.4235L20.4997 10.3702C18.9957 8.84519 16.7135 7.77807 14.1152 7.40085L13.8997 8.88529Z" fill="#292556"/>
</svg>
