<svg width="24" height="24" viewBox="0 0 24 24" fill="none" xmlns="http://www.w3.org/2000/svg">
<path d="M13 19C13 18.4477 12.5523 18 12 18C11.4477 18 11 18.4477 11 19C11 19.5523 11.4477 20 12 20C12.5523 20 13 19.5523 13 19Z" fill="#292556"/>
<path d="M8 8.13743C8 6.20957 9.27477 4.58967 11 4.13037M12 15C11.9877 14.142 12.0712 13.3262 12.648 12.6812C13.1182 12.1554 13.7867 11.9077 14.3433 11.4909C15.347 10.7392 16 9.5172 16 8.13743C16 6.60601 15.1956 5.26891 14 4.55354" stroke="#292556" stroke-width="1.5" stroke-linecap="round" stroke-linejoin="round"/>
</svg>
