<svg width="24" height="24" viewBox="0 0 24 24" fill="none" xmlns="http://www.w3.org/2000/svg">
<path d="M10 7.62988C10.4143 7.62988 10.75 7.2941 10.75 6.87988C10.75 6.46567 10.4143 6.12988 10 6.12988V7.62988ZM5.08373 9.69548C4.91009 10.0715 5.07419 10.5172 5.45025 10.6908C5.82631 10.8644 6.27193 10.7003 6.44557 10.3243L5.08373 9.69548ZM10 6.12988C7.82175 6.12988 6.03182 7.64213 5.08373 9.69548L6.44557 10.3243C7.23033 8.62467 8.57974 7.62988 10 7.62988V6.12988Z" fill="#292556" fill-opacity="0.18"/>
<path d="M4.65174 15.6202C4.77066 16.0169 5.18871 16.2422 5.58549 16.1233C5.98227 16.0044 6.20752 15.5863 6.0886 15.1895L4.65174 15.6202ZM18.7002 7.62988C19.1144 7.62988 19.4502 7.2941 19.4502 6.87988C19.4502 6.46567 19.1144 6.12988 18.7002 6.12988V7.62988ZM13.3517 15.6203C13.4707 16.0171 13.8887 16.2423 14.2855 16.1234C14.6823 16.0045 14.9075 15.5864 14.7886 15.1896L13.3517 15.6203ZM6.44569 10.3242C6.61933 9.9481 6.45523 9.50248 6.07917 9.32885C5.70311 9.15521 5.25749 9.3193 5.08385 9.69537L6.44569 10.3242ZM4.50017 14.6477C4.50017 16.4398 5.97224 17.8798 7.75017 17.8798V16.3798C6.78654 16.3798 6.00017 15.5973 6.00017 14.6477H4.50017ZM9.50017 14.6477C9.50017 15.5973 8.7138 16.3798 7.75017 16.3798V17.8798C9.52811 17.8798 11.0002 16.4398 11.0002 14.6477H9.50017ZM7.75017 12.9157C8.7138 12.9157 9.50017 13.6982 9.50017 14.6477H11.0002C11.0002 12.8557 9.52811 11.4157 7.75017 11.4157V12.9157ZM7.75017 11.4157C5.97224 11.4157 4.50017 12.8557 4.50017 14.6477H6.00017C6.00017 13.6982 6.78654 12.9157 7.75017 12.9157V11.4157ZM4.30017 13.3798C4.30017 14.1776 4.44562 14.9324 4.65174 15.6202L6.0886 15.1895C5.91271 14.6027 5.80017 13.9961 5.80017 13.3798H4.30017ZM13.2002 14.6479C13.2002 16.4399 14.6722 17.8799 16.4502 17.8799V16.3799C15.4865 16.3799 14.7002 15.5974 14.7002 14.6479H13.2002ZM18.2002 14.6479C18.2002 15.5974 17.4138 16.3799 16.4502 16.3799V17.8799C18.2281 17.8799 19.7002 16.4399 19.7002 14.6479H18.2002ZM16.4502 12.9158C17.4138 12.9158 18.2002 13.6983 18.2002 14.6479H19.7002C19.7002 12.8558 18.2281 11.4158 16.4502 11.4158V12.9158ZM16.4502 11.4158C14.6722 11.4158 13.2002 12.8558 13.2002 14.6479H14.7002C14.7002 13.6983 15.4865 12.9158 16.4502 12.9158V11.4158ZM18.7002 6.12988C17.0457 6.12988 15.6039 7.0101 14.6002 8.32961C13.5971 9.64814 13.0002 11.4363 13.0002 13.3799H14.5002C14.5002 11.7336 15.0074 10.2718 15.794 9.23777C16.5798 8.20474 17.6131 7.62988 18.7002 7.62988V6.12988ZM13.0002 13.3799C13.0002 14.1777 13.1456 14.9326 13.3517 15.6203L14.7886 15.1896C14.6127 14.6028 14.5002 13.9962 14.5002 13.3799H13.0002ZM5.08385 9.69537C4.58296 10.7802 4.30017 12.0414 4.30017 13.3798H5.80017C5.80017 12.2505 6.03913 11.2047 6.44569 10.3242L5.08385 9.69537Z" fill="#292556"/>
</svg>
