<svg width="24" height="24" viewBox="0 0 24 24" fill="none" xmlns="http://www.w3.org/2000/svg">
<path d="M10.2502 14.6475C10.2502 13.2768 9.12102 12.1655 7.75024 12.1655C6.37946 12.1655 5.25024 13.2768 5.25024 14.6475C5.25024 16.0183 6.37946 17.1296 7.75024 17.1296C9.12102 17.1296 10.2502 16.0183 10.2502 14.6475Z" fill="#292556" fill-opacity="0.18"/>
<path d="M18.9502 14.6477C18.9502 13.2769 17.821 12.1656 16.4502 12.1656C15.0795 12.1656 13.9502 13.2769 13.9502 14.6477C13.9502 16.0184 15.0795 17.1297 16.4502 17.1297C17.821 17.1297 18.9502 16.0184 18.9502 14.6477Z" fill="#292556" fill-opacity="0.18"/>
<path d="M10.0002 7.62988C10.4144 7.62988 10.7502 7.2941 10.7502 6.87988C10.7502 6.46567 10.4144 6.12988 10.0002 6.12988V7.62988ZM4.65174 15.6203C4.77066 16.0171 5.18871 16.2423 5.58549 16.1234C5.98227 16.0045 6.20752 15.5864 6.0886 15.1896L4.65174 15.6203ZM18.7002 7.63C19.1144 7.63 19.4502 7.29421 19.4502 6.88C19.4502 6.46579 19.1144 6.13 18.7002 6.13V7.63ZM13.3517 15.6204C13.4707 16.0172 13.8887 16.2424 14.2855 16.1235C14.6823 16.0046 14.9075 15.5865 14.7886 15.1898L13.3517 15.6204ZM4.50017 14.6479C4.50017 16.4399 5.97224 17.8799 7.75017 17.8799V16.3799C6.78654 16.3799 6.00017 15.5974 6.00017 14.6479H4.50017ZM9.50017 14.6479C9.50017 15.5974 8.7138 16.3799 7.75017 16.3799V17.8799C9.52811 17.8799 11.0002 16.4399 11.0002 14.6479H9.50017ZM7.75017 12.9158C8.7138 12.9158 9.50017 13.6983 9.50017 14.6479H11.0002C11.0002 12.8558 9.52811 11.4158 7.75017 11.4158V12.9158ZM7.75017 11.4158C5.97224 11.4158 4.50017 12.8558 4.50017 14.6479H6.00017C6.00017 13.6983 6.78654 12.9158 7.75017 12.9158V11.4158ZM10.0002 6.12988C8.34569 6.12988 6.90393 7.0101 5.90017 8.32961C4.89714 9.64814 4.30017 11.4363 4.30017 13.3799H5.80017C5.80017 11.7336 6.30742 10.2718 7.094 9.23777C7.87985 8.20474 8.91309 7.62988 10.0002 7.62988V6.12988ZM4.30017 13.3799C4.30017 14.1777 4.44562 14.9326 4.65174 15.6203L6.0886 15.1896C5.91271 14.6028 5.80017 13.9962 5.80017 13.3799H4.30017ZM13.2002 14.648C13.2002 16.44 14.6722 17.88 16.4502 17.88V16.38C15.4865 16.38 14.7002 15.5975 14.7002 14.648H13.2002ZM18.2002 14.648C18.2002 15.5975 17.4138 16.38 16.4502 16.38V17.88C18.2281 17.88 19.7002 16.44 19.7002 14.648H18.2002ZM16.4502 12.916C17.4138 12.916 18.2002 13.6984 18.2002 14.648H19.7002C19.7002 12.856 18.2281 11.416 16.4502 11.416V12.916ZM16.4502 11.416C14.6722 11.416 13.2002 12.856 13.2002 14.648H14.7002C14.7002 13.6984 15.4865 12.916 16.4502 12.916V11.416ZM18.7002 6.13C17.0457 6.13 15.6039 7.01022 14.6002 8.32972C13.5971 9.64826 13.0002 11.4364 13.0002 13.38H14.5002C14.5002 11.7337 15.0074 10.2719 15.794 9.23789C16.5798 8.20485 17.6131 7.63 18.7002 7.63V6.13ZM13.0002 13.38C13.0002 14.1778 13.1456 14.9327 13.3517 15.6204L14.7886 15.1898C14.6127 14.6029 14.5002 13.9963 14.5002 13.38H13.0002Z" fill="#292556"/>
</svg>
