<svg width="24" height="24" viewBox="0 0 24 24" fill="none" xmlns="http://www.w3.org/2000/svg">
<path d="M9.79998 6.8501C10.2142 6.8501 10.55 6.51431 10.55 6.1001C10.55 5.68588 10.2142 5.3501 9.79998 5.3501V6.8501ZM4.45155 14.8405C4.57047 15.2373 4.98852 15.4625 5.38529 15.3436C5.78207 15.2247 6.00732 14.8066 5.8884 14.4099L4.45155 14.8405ZM18.5 6.85021C18.9142 6.85021 19.25 6.51443 19.25 6.10021C19.25 5.686 18.9142 5.35021 18.5 5.35021V6.85021ZM13.1515 14.8406C13.2705 15.2374 13.6885 15.4626 14.0853 15.3437C14.4821 15.2248 14.7073 14.8068 14.5884 14.41L13.1515 14.8406ZM9.79998 5.3501C8.14549 5.3501 6.70374 6.23032 5.69997 7.54982C4.69694 8.86836 4.09998 10.6565 4.09998 12.6001H5.59998C5.59998 10.9538 6.10723 9.49199 6.89381 8.45799C7.67965 7.42495 8.7129 6.8501 9.79998 6.8501V5.3501ZM4.09998 12.6001C4.09998 13.3979 4.24543 14.1528 4.45155 14.8405L5.8884 14.4099C5.71252 13.823 5.59998 13.2164 5.59998 12.6001H4.09998ZM18.5 5.35021C16.8455 5.35021 15.4037 6.23044 14.4 7.54994C13.3969 8.86848 12.8 10.6566 12.8 12.6002H14.3C14.3 10.954 14.8072 9.4921 15.5938 8.4581C16.3797 7.42507 17.4129 6.85021 18.5 6.85021V5.35021ZM12.8 12.6002C12.8 13.398 12.9454 14.1529 13.1515 14.8406L14.5884 14.41C14.4125 13.8231 14.3 13.2165 14.3 12.6002H12.8Z" fill="#292556" fill-opacity="0.18"/>
<path d="M19.5 13.88C19.5 12.0851 18.032 10.63 16.25 10.63C14.468 10.63 13 12.0851 13 13.88C13 15.6749 14.468 17.13 16.25 17.13C18.032 17.13 19.5 15.6749 19.5 13.88Z" fill="#292556"/>
<path d="M10.7998 13.8799C10.7998 12.085 9.33182 10.6299 7.5498 10.6299C5.76779 10.6299 4.2998 12.085 4.2998 13.8799C4.2998 15.6748 5.76779 17.1299 7.5498 17.1299C9.33182 17.1299 10.7998 15.6748 10.7998 13.8799Z" fill="#292556"/>
</svg>
