<svg width="24" height="24" viewBox="0 0 24 24" fill="none" xmlns="http://www.w3.org/2000/svg">
<path d="M6.00012 18.1239V18.8836C6.00012 19.5049 5.49644 20.0086 4.87512 20.0086V20.0086C4.2538 20.0086 3.75012 19.5049 3.75012 18.8836V10.1275C3.75012 9.50621 4.2538 9.00253 4.87512 9.00253V9.00253C5.49644 9.00253 6.00012 9.50621 6.00012 10.1275V11.0212M6.00012 18.1239L6.7495 18.8301C7.30267 19.3513 7.57926 19.612 7.91816 19.797C8.02636 19.8561 8.15119 19.9142 8.26605 19.959C8.6258 20.0992 8.98528 20.141 9.70426 20.2245C10.7569 20.3469 12.078 20.4791 13.0001 20.4971C14.1119 20.5189 15.5395 20.3883 16.6617 20.2567C16.6661 20.2561 16.6551 20.2574 16.6847 20.2534C17.7372 20.1086 18.7165 19.3239 19.0873 18.3283C19.0977 18.3002 19.1028 18.2857 19.113 18.2566V18.2566M6.00012 18.1239V11.0212M6.00012 11.0212C7.83805 10.3855 8.91103 9.51713 10.3718 8.02312C11.3547 7.01787 12.029 5.11416 12.4285 4.18836C12.6324 3.71577 13.1128 3.49951 13.6179 3.49951C14.3392 3.49951 15.0233 3.90846 15.2467 4.6099C15.6262 5.80115 15.6271 6.93637 15.2496 8.25632V8.25632C15.1172 8.91779 15.5952 9.54533 16.2681 9.59342L18.2523 9.73523C20.1407 9.87019 21.3846 11.7627 20.7595 13.5497L20.4272 14.4995" stroke="#292556" stroke-width="1.5" stroke-linecap="round" stroke-linejoin="round"/>
</svg>
