<svg width="24" height="24" viewBox="0 0 24 24" fill="none" xmlns="http://www.w3.org/2000/svg">
<path d="M6.00006 5.8751V5.11546C6.00006 4.49414 5.49638 3.99046 4.87506 3.99046V3.99046C4.25374 3.99046 3.75006 4.49414 3.75006 5.11546V13.8715C3.75006 14.4928 4.25374 14.9965 4.87506 14.9965V14.9965C5.49638 14.9965 6.00006 14.4928 6.00006 13.8715V12.9778M6.00006 5.8751L6.74944 5.16895C7.30261 4.64768 7.5792 4.38705 7.9181 4.20203C8.0263 4.14296 8.15113 4.08485 8.26599 4.04007C8.62574 3.89983 8.98522 3.85805 9.7042 3.77449C10.7569 3.65215 12.0779 3.51992 13.0001 3.5019C14.1118 3.48016 15.5395 3.61075 16.6616 3.74236C16.6661 3.74288 16.655 3.74158 16.6847 3.74566C17.7371 3.89046 18.7165 4.67515 19.0872 5.67075C19.0977 5.69882 19.1027 5.71335 19.1129 5.74239V5.74239M6.00006 5.8751V12.9778M6.00006 12.9778C7.83799 13.6135 8.91097 14.4819 10.3718 15.9759C11.3547 16.9812 12.029 18.8849 12.4284 19.8107C12.6323 20.2833 13.1128 20.4995 13.6178 20.4995C14.3392 20.4995 15.0232 20.0906 15.2466 19.3891C15.6261 18.1979 15.6271 17.0627 15.2495 15.7427V15.7427C15.1171 15.0812 15.5952 14.4537 16.268 14.4056L18.2523 14.2638C20.1406 14.1288 21.3845 12.2363 20.7594 10.4493L20.4272 9.49951" stroke="#292556" stroke-width="1.5" stroke-linecap="round" stroke-linejoin="round"/>
</svg>
