<svg width="24" height="24" viewBox="0 0 24 24" fill="none" xmlns="http://www.w3.org/2000/svg">
<path d="M17.6874 15.478C15.9263 18.3748 12.8094 19.9995 9.53164 19.9995C6.99266 19.9995 4.68921 18.9987 3 17.373C3.2611 17.4083 3.52249 17.4226 3.79045 17.4226C5.41539 17.4226 6.9109 16.8219 8.09725 15.8157C6.58016 15.7845 5.30035 14.7003 4.86176 13.2027C5.07746 13.2495 5.29316 13.2729 5.51605 13.2729C5.8324 13.2729 6.14157 13.2261 6.42917 13.1403C4.84019 12.7893 3.64665 11.2761 3.64665 9.45086V9.40406C4.114 9.68487 4.64606 9.85647 5.21407 9.87207C4.27937 9.20126 3.66822 8.04684 3.66822 6.74423C3.66822 6.05782 3.84078 5.41041 4.13557 4.85661C5.68712 6.92172 7.93023 8.34559 10.4844 8.7096C10.4748 8.59443 10.4699 8.47794 10.4699 8.36031C10.4699 6.04618 12.3603 4.1702 14.6922 4.1702C15.4149 4.1702 16.0951 4.35035 16.6898 4.66787C16.7637 4.70732 16.8363 4.74888 16.9075 4.79249C17.3734 5.078 17.6064 5.22076 17.7678 5.24065C17.8331 5.2487 17.8621 5.24916 17.9276 5.24318C18.0896 5.22841 18.2677 5.12692 18.6238 4.92395L19.1234 4.63919C20.1423 4.05838 20.6518 3.76797 20.9006 3.91249C20.9763 3.95645 21.0391 4.01951 21.0828 4.09536C21.2263 4.3447 20.934 4.85307 20.3492 5.8698L19.2029 7.86292C19.137 7.97747 19.1041 8.03474 19.0872 8.09565C19.0814 8.11652 19.0774 8.13572 19.0742 8.15714C19.0651 8.21969 19.0725 8.28858 19.0873 8.42637C19.2124 9.59315 19.1872 10.6858 19.0341 11.6978" stroke="#292556" stroke-width="1.5" stroke-linecap="round" stroke-linejoin="round"/>
</svg>
