<svg width="24" height="24" viewBox="0 0 24 24" fill="none" xmlns="http://www.w3.org/2000/svg">
<path d="M3.00037 8C5.00037 5.90088 8.04216 4 12.0004 4M21.0004 8C19.7572 6.69523 18.1115 5.46705 16.0935 4.72436M5.50037 11C7.13861 9.40451 9.44513 8.19825 12.0004 8.19825C14.5556 8.19825 16.8621 9.40451 18.5004 11M8.00037 14C9.06188 13.0028 10.4637 12.3965 12.0004 12.3965C13.5371 12.3965 14.9389 13.0028 16.0004 14M14.0004 18C14.0004 19.1046 13.1049 20 12.0004 20C10.8958 20 10.0004 19.1046 10.0004 18C10.0004 16.8954 10.8958 16 12.0004 16C13.1049 16 14.0004 16.8954 14.0004 18Z" stroke="#292556" stroke-width="1.5" stroke-linecap="round" stroke-linejoin="round"/>
</svg>
