<svg width="24" height="24" viewBox="0 0 24 24" fill="none" xmlns="http://www.w3.org/2000/svg">
<path d="M14.7968 20.5569C14.9305 19.7244 15 18.8703 15 18C15 16.0975 14.668 14.2726 14.0587 12.58M6.9057 19.4204C8.5048 16.4531 11.0136 14.0485 14.0587 12.58M14.0587 12.58C13.6983 11.5789 13.241 10.6241 12.698 9.727M14.0587 12.58C16.1428 11.5749 18.4782 11.0084 20.9451 11.0001M7.30391 4.3208C9.50779 5.66153 11.3621 7.51986 12.698 9.727M12.698 9.727C10.0208 11.7701 6.67981 12.9877 3.05493 12.9999M12.698 9.727C14.5046 8.34821 16.009 6.59347 17.0943 4.57953" stroke="#292556" stroke-opacity="0.18" stroke-width="1.5" stroke-linecap="round" stroke-linejoin="round"/>
<path d="M21 12C21 16.9706 16.9706 21 12 21C7.02944 21 3 16.9706 3 12C3 7.02944 7.02944 3 12 3C16.9706 3 21 7.02944 21 12Z" stroke="#292556" stroke-width="1.5" stroke-linejoin="round"/>
</svg>
