<svg width="24" height="24" viewBox="0 0 24 24" fill="none" xmlns="http://www.w3.org/2000/svg">
<path d="M18.1579 9.01856V14.4287C18.1579 15.1082 18.1579 15.4479 18.0266 15.7408C17.9834 15.837 17.9302 15.9285 17.8678 16.0136C17.6781 16.2724 17.3828 16.4403 16.7921 16.7761L13.3342 18.7414C12.7565 19.0698 12.4677 19.2339 12.1548 19.2664C12.0519 19.2771 11.9481 19.2771 11.8452 19.2664C11.5323 19.2339 11.2435 19.0698 10.6658 18.7415L7.20793 16.7761C6.61722 16.4403 6.32186 16.2724 6.13216 16.0136C6.06981 15.9285 6.01661 15.837 5.97344 15.7408C5.8421 15.4479 5.8421 15.1082 5.8421 14.4287V9.01855" stroke="#292556" stroke-opacity="0.18" stroke-width="1.5" stroke-linecap="round" stroke-linejoin="round"/>
<path d="M21 7.64286L13.129 4.01969C12.6361 3.79283 12.3897 3.6794 12.1293 3.65687C12.0432 3.64943 11.9568 3.64943 11.8707 3.65687C11.6103 3.6794 11.3639 3.79283 10.871 4.01969L3 7.64286L10.8235 11.4304C11.3362 11.6786 11.5925 11.8027 11.8649 11.8274C11.9548 11.8355 12.0452 11.8355 12.1351 11.8274C12.4075 11.8027 12.6638 11.6786 13.1765 11.4304L21 7.64286ZM21 7.64286V16.9C21 17.4876 21 17.7814 20.898 18.0437C20.8644 18.1302 20.8228 18.2134 20.7738 18.2922C20.6251 18.5311 20.3901 18.7074 19.92 19.06L18.75 19.9375" stroke="#292556" stroke-width="1.5" stroke-linecap="round" stroke-linejoin="round"/>
</svg>
