<svg width="24" height="24" viewBox="0 0 24 24" fill="none" xmlns="http://www.w3.org/2000/svg">
<path d="M12.001 8L12.0009 7.25L12.001 8ZM7.84918 7.85767C7.45326 7.9794 7.23097 8.39903 7.3527 8.79496C7.47442 9.19088 7.89406 9.41317 8.28998 9.29144L7.84918 7.85767ZM15.711 9.28963C16.107 9.41118 16.5265 9.18872 16.6481 8.79274C16.7697 8.39677 16.5472 7.97723 16.1512 7.85567L15.711 9.28963ZM8.28998 9.29144C9.41655 8.94509 10.6729 8.75027 12.0012 8.75L12.0009 7.25C10.5276 7.2503 9.12249 7.46621 7.84918 7.85767L8.28998 9.29144ZM12.0012 8.75C13.329 8.74973 14.5849 8.94394 15.711 9.28963L16.1512 7.85567C14.8783 7.46492 13.4737 7.24971 12.0009 7.25L12.0012 8.75Z" fill="#292556" fill-opacity="0.18"/>
<path d="M21 13.1257L21.75 13.1259L21 13.1257ZM18.1995 15.9976L18.1996 16.7476L18.1995 15.9976ZM15.4 13.1268L16.15 13.127L15.4 13.1268ZM8.6 13.1282L9.35 13.1283L8.6 13.1282ZM3 13.1293L3.75 13.1295L3 13.1293ZM19.9657 10.897L19.4318 11.4237C19.4488 11.441 19.4668 11.4575 19.4854 11.473L19.9657 10.897ZM4.0351 10.9002L4.51546 11.4762C4.53412 11.4606 4.55202 11.4442 4.56908 11.4269L4.0351 10.9002ZM15.9311 11.4443L16.5437 11.877C16.6824 11.6806 16.7186 11.4295 16.6409 11.202C16.5632 10.9744 16.3811 10.7979 16.1512 10.7273L15.9311 11.4443ZM8.06955 11.4458L7.84918 10.7289C7.61939 10.7996 7.43738 10.9761 7.35974 11.2036C7.2821 11.4311 7.31823 11.6821 7.45691 11.8785L8.06955 11.4458ZM8.28995 9.29155C8.68588 9.16982 8.90816 8.75019 8.78644 8.35426C8.66471 7.95834 8.24508 7.73605 7.84915 7.85778L8.28995 9.29155ZM16.1512 7.85578C15.7552 7.73422 15.3357 7.95668 15.2141 8.35266C15.0926 8.74864 15.315 9.16818 15.711 9.28973L16.1512 7.85578ZM20.25 13.1256C20.2498 14.3152 19.3139 15.2474 18.1993 15.2476L18.1996 16.7476C20.1778 16.7472 21.7496 15.1079 21.75 13.1259L20.25 13.1256ZM18.1993 15.2476C17.0849 15.2478 16.1498 14.3164 16.15 13.127L14.65 13.1267C14.6496 15.1089 16.2212 16.748 18.1996 16.7476L18.1993 15.2476ZM7.85 13.1281C7.84977 14.3176 6.91393 15.2499 5.7993 15.2501L5.7996 16.7501C7.77777 16.7497 9.34962 15.1103 9.35 13.1283L7.85 13.1281ZM5.7993 15.2501C4.68492 15.2503 3.74977 14.3188 3.75 13.1295L2.25 13.1292C2.24962 15.1114 3.82119 16.7505 5.7996 16.7501L5.7993 15.2501ZM19.4854 11.473C19.95 11.8604 20.2501 12.4541 20.25 13.1256L21.75 13.1259C21.7502 11.9983 21.244 10.9863 20.4461 10.321L19.4854 11.473ZM3.75 13.1295C3.75013 12.458 4.05052 11.8639 4.51546 11.4762L3.55474 10.3242C2.75681 10.9897 2.25021 12.0017 2.25 13.1292L3.75 13.1295ZM16.15 13.127C16.1501 12.6572 16.2969 12.2264 16.5437 11.877L15.3185 11.0116C14.8973 11.6079 14.6501 12.3396 14.65 13.1267L16.15 13.127ZM12.0006 11.6215C13.3286 11.6212 14.5847 11.8154 15.711 12.1612L16.1512 10.7273C14.8782 10.3364 13.4733 10.1212 12.0003 10.1215L12.0006 11.6215ZM7.45691 11.8785C7.70347 12.2276 7.85009 12.6583 7.85 13.1281L9.35 13.1283C9.35015 12.3413 9.10328 11.6095 8.68219 11.0132L7.45691 11.8785ZM8.28992 12.1627C9.41636 11.8165 10.6725 11.6217 12.0006 11.6215L12.0003 10.1215C10.5272 10.1217 9.12234 10.3376 7.84918 10.7289L8.28992 12.1627ZM4.56908 11.4269C5.46336 10.5201 6.74503 9.76652 8.28995 9.29155L7.84915 7.85778C6.11135 8.39205 4.59971 9.25968 3.50112 10.3736L4.56908 11.4269ZM15.711 9.28973C17.2561 9.76405 18.5378 10.5172 19.4318 11.4237L20.4997 10.3704C19.4012 9.25656 17.8893 8.38934 16.1512 7.85578L15.711 9.28973Z" fill="#292556"/>
</svg>
