<svg width="24" height="24" viewBox="0 0 24 24" fill="none" xmlns="http://www.w3.org/2000/svg">
<path d="M17.85 8.12109V8.12109C18.508 8.12109 18.837 8.12109 18.9967 8.14178C21.1279 8.41762 21.941 11.076 20.3287 12.4968C20.2078 12.6033 19.9351 12.7873 19.3897 13.1554L18.8804 13.499" stroke="#292556" stroke-opacity="0.18" stroke-width="1.5" stroke-linecap="round" stroke-linejoin="round"/>
<path d="M18 8.1221H17.6737C17.3305 8.1221 17.1589 8.1221 17.0039 8.10267C16.1728 7.99844 15.4491 7.48492 15.0763 6.73484C15.0068 6.59501 14.9502 6.43304 14.8368 6.10911V6.10911C14.4498 5.00272 14.2563 4.44953 14.0829 4.18832C13.0939 2.69854 10.9062 2.69854 9.91718 4.18832C9.74378 4.44953 9.55026 5.00272 9.16321 6.10911L9.12613 6.2151C9.04831 6.43756 9.00939 6.5488 8.96547 6.64657C8.59372 7.47408 7.80285 8.03528 6.899 8.11293C6.79221 8.1221 6.67436 8.1221 6.43868 8.1221H6.25763C5.55148 8.1221 5.1984 8.1221 5.01948 8.14812C2.97486 8.44542 2.15294 10.9538 3.62512 12.4034C3.75396 12.5303 4.03857 12.7393 4.60779 13.1572V13.1572C4.77152 13.2774 4.85339 13.3375 4.92315 13.397C5.65719 14.0237 5.96496 15.0169 5.71387 15.9488C5.69001 16.0374 5.65539 16.1363 5.58616 16.3342V16.3342C5.29144 17.1767 5.14409 17.5979 5.10888 17.8185C4.79679 19.7742 6.77432 21.299 8.58638 20.4999C8.79083 20.4098 9.14943 20.1678 9.86662 19.6838L10.3043 19.3885C10.5898 19.1958 10.7326 19.0995 10.8736 19.0283C11.582 18.6708 12.418 18.6708 13.1264 19.0283C13.2675 19.0995 13.4102 19.1958 13.6958 19.3885L14.1922 19.7235C14.862 20.1755 15.1969 20.4015 15.3868 20.4879C17.2136 21.3193 19.2259 19.7676 18.8864 17.7895C18.8511 17.5839 18.7177 17.2025 18.4508 16.4398L17.9886 15.1186C17.836 14.6822 17.9967 14.1976 18.38 13.939V13.939L19.0305 13.5" stroke="#292556" stroke-width="1.5" stroke-linecap="round" stroke-linejoin="round"/>
</svg>
