<svg width="24" height="24" viewBox="0 0 24 24" fill="none" xmlns="http://www.w3.org/2000/svg">
<path d="M18.7083 18L18.2426 17.3122C16.8401 15.2408 14.5015 14 12 14V14C9.49849 14 7.15987 15.2408 5.75738 17.3122L5.29169 18M12 11.5C10.6193 11.5 9.50001 10.3807 9.50001 9C9.50001 7.61929 10.6193 6.5 12 6.5C13.3807 6.5 14.5 7.61929 14.5 9C14.5 10.3807 13.3807 11.5 12 11.5Z" stroke="#292556" stroke-opacity="0.18" stroke-width="1.5" stroke-linejoin="round"/>
<path d="M18.7083 18C20.1334 16.4077 21 14.3051 21 12C21 7.02944 16.9706 3 12 3C7.02944 3 3 7.02944 3 12C3 14.3051 3.86656 16.4077 5.29168 18C6.93964 19.8412 9.3345 21 12 21C14.6655 21 17.0604 19.8412 18.7083 18Z" stroke="#292556" stroke-width="1.5" stroke-linejoin="round"/>
</svg>
