<svg width="24" height="24" viewBox="0 0 24 24" fill="none" xmlns="http://www.w3.org/2000/svg">
<path d="M9.49988 11.6742C8.02079 11.2385 6.33323 11.6216 5.14122 12.8136C3.70571 14.2491 3.52361 18.6566 3.50248 20.0633C3.49981 20.2407 3.49848 20.3295 3.547 20.3967C3.56211 20.4176 3.58244 20.4379 3.60336 20.453C3.67057 20.5015 3.75928 20.5002 3.93672 20.4975C5.34341 20.4764 9.75088 20.2943 11.1864 18.8588C12.3784 17.6667 12.7615 15.9791 12.3258 14.5M9.49988 11.6742C9.55966 11.6918 9.61911 11.7108 9.67817 11.7311C9.79281 11.7704 9.90599 11.8149 10.0174 11.8643C10.4738 12.0671 10.9001 12.3546 11.2727 12.7273C11.6465 13.1011 11.9347 13.5288 12.1375 13.9868C12.1863 14.0969 12.2301 14.2086 12.269 14.3219C12.2892 14.3809 12.3082 14.4403 12.3258 14.5M9.49988 11.6742L17.1657 4.55734C17.5711 4.18092 17.7739 3.99271 18.0041 3.92693C18.1958 3.87214 18.3995 3.87592 18.5891 3.93779C18.8166 4.01206 19.0122 4.20767 19.4035 4.59888V4.59888C19.7948 4.9902 19.9905 5.18587 20.0647 5.4135C20.1266 5.60311 20.1303 5.80689 20.0755 5.99864C20.0096 6.22885 19.8213 6.43158 19.4446 6.83704L17.46 8.97338M12.3258 14.5L14.7357 11.9059M8.49988 4.75C7.49988 5 6.99988 5.5 6.74988 6.5C6.49988 5.5 5.99988 5 4.99988 4.75C5.99988 4.5 6.49988 4 6.74988 3C6.99988 4 7.49988 4.5 8.49988 4.75ZM18.9999 19.25C17.9999 19.5 17.4999 20 17.2499 21C16.9999 20 16.4999 19.5 15.4999 19.25C16.4999 19 16.9999 18.5 17.2499 17.5C17.4999 18.5 17.9999 19 18.9999 19.25Z" stroke="#292556" stroke-width="1.5" stroke-linecap="round" stroke-linejoin="round"/>
</svg>
