<svg width="24" height="24" viewBox="0 0 24 24" fill="none" xmlns="http://www.w3.org/2000/svg">
<path d="M18.9381 5.93778C18.9381 7.59463 15.8041 8.93778 11.9381 8.93778C8.07212 8.93778 4.93811 7.59463 4.93811 5.93778M18.9381 5.93778V17.9378C18.9381 19.5946 15.8041 20.9378 11.9381 20.9378C8.07212 20.9378 4.93811 19.5946 4.93811 17.9378L4.93811 5.93778M18.9381 5.93778C18.9381 4.57877 16.8296 3.43082 13.9381 3.06201M4.93811 5.93778C4.93811 4.57877 7.04662 3.43082 9.93811 3.06201M18.9381 9.93778C18.9381 11.5946 15.8041 12.9378 11.9381 12.9378C8.07212 12.9378 4.93811 11.5946 4.93811 9.93778M18.9381 13.9378C18.9381 15.5946 15.8041 16.9378 11.9381 16.9378C8.07212 16.9378 4.93811 15.5946 4.93811 13.9378" stroke="#292556" stroke-width="1.5" stroke-linecap="round" stroke-linejoin="round"/>
</svg>
