<svg width="24" height="24" viewBox="0 0 24 24" fill="none" xmlns="http://www.w3.org/2000/svg">
<path d="M18.2998 17.7466L17.6785 19.2998C17.3873 20.028 17.2416 20.3921 16.9666 20.6305C16.8765 20.7086 16.7775 20.7756 16.6716 20.8302C16.3481 20.9971 15.9559 20.9971 15.1716 20.9971H8.82762C8.04334 20.9971 7.65119 20.9971 7.32769 20.8302C7.22177 20.7756 7.12274 20.7086 7.03269 20.6305C6.75765 20.3921 6.61201 20.028 6.32074 19.2998L3.70396 12.7579C3.40244 12.0041 3.25168 11.6272 3.2926 11.2545C3.30599 11.1326 3.33426 11.0128 3.3768 10.8978C3.50687 10.5462 3.81027 10.2765 4.41707 9.73713L10.2059 4.59154C10.9609 3.92038 11.3384 3.58479 11.7824 3.51982C11.9265 3.49873 12.0728 3.49873 12.2169 3.51982C12.6608 3.58479 13.0384 3.92038 13.7934 4.59154L19.5822 9.73713C20.189 10.2765 20.4924 10.5462 20.6225 10.8978C20.665 11.0128 20.6933 11.1326 20.7067 11.2545C20.7476 11.6272 20.5968 12.0041 20.2953 12.7579L19.7854 14.0327" stroke="#292556" stroke-width="1.5" stroke-linecap="round" stroke-linejoin="round"/>
</svg>
