<svg width="24" height="24" viewBox="0 0 24 24" fill="none" xmlns="http://www.w3.org/2000/svg">
<path d="M4.02513 4.07307L3.4949 3.54263H3.4949L4.02513 4.07307ZM8.97487 4.07307L9.5051 3.54263L8.97487 4.07307ZM8.97487 9.02088L8.44465 8.49045L8.97487 9.02088ZM14.9853 15.0289L14.4551 14.4985L14.9853 15.0289ZM19.935 19.9768L19.4048 19.4463L19.935 19.9768ZM7.56066 16.4426L7.03043 16.973L7.56066 16.4426ZM3.01853 6.90762L3.76852 6.90336C3.76838 6.8791 3.76707 6.85486 3.76458 6.83073L3.01853 6.90762ZM17.0994 20.983L17.1762 20.2369C17.1521 20.2344 17.1279 20.2331 17.1036 20.233L17.0994 20.983ZM7.05559 10.0015L6.9372 9.26091C6.69728 9.29926 6.49081 9.45146 6.38319 9.66929C6.27556 9.88711 6.28013 10.1436 6.39544 10.3574L7.05559 10.0015ZM14.0043 16.9475L13.6486 17.6077C13.8624 17.723 14.1188 17.7275 14.3366 17.6198C14.5543 17.5122 14.7065 17.3058 14.7449 17.066L14.0043 16.9475ZM8.11244 12.9436C8.37099 13.2672 8.84292 13.3199 9.16654 13.0614C9.49015 12.8028 9.54289 12.3309 9.28434 12.0073L8.11244 12.9436ZM11.9948 14.7178C11.6712 14.4593 11.1992 14.5122 10.9408 14.8358C10.6823 15.1595 10.7351 15.6314 11.0588 15.8899L11.9948 14.7178ZM4.55535 4.6035C5.62932 3.52995 7.37068 3.52995 8.44465 4.6035L9.5051 3.54263C7.8454 1.88358 5.1546 1.88358 3.4949 3.54263L4.55535 4.6035ZM8.44465 4.6035C9.51845 5.67688 9.51845 7.41706 8.44465 8.49045L9.5051 9.55131C11.165 7.8921 11.165 5.20185 9.5051 3.54263L8.44465 4.6035ZM15.5155 15.5594C16.5895 14.4858 18.3308 14.4858 19.4048 15.5594L20.4653 14.4985C18.8055 12.8395 16.1148 12.8395 14.4551 14.4985L15.5155 15.5594ZM19.4048 15.5594C20.4786 16.6328 20.4786 18.3729 19.4048 19.4463L20.4653 20.5072C22.1251 18.848 22.1251 16.1577 20.4653 14.4985L19.4048 15.5594ZM8.09089 15.9122C5.26504 13.0874 3.78435 9.69294 3.76852 6.90336L2.26854 6.91188C2.28711 10.1828 3.99291 13.9367 7.03043 16.973L8.09089 15.9122ZM3.76458 6.83073C3.6825 6.03433 3.94644 5.21217 4.55535 4.6035L3.4949 3.54263C2.5532 4.48397 2.14608 5.75809 2.27248 6.98451L3.76458 6.83073ZM19.4048 19.4463C18.7959 20.055 17.9732 20.319 17.1762 20.2369L17.0225 21.729C18.2491 21.8553 19.5236 21.4485 20.4653 20.5072L19.4048 19.4463ZM17.1036 20.233C14.3127 20.2171 10.9167 18.7369 8.09089 15.9122L7.03043 16.973C10.068 20.0094 13.8232 21.7144 17.0951 21.7329L17.1036 20.233ZM8.44465 8.49045C8.01844 8.91649 7.48913 9.17268 6.9372 9.26091L7.17398 10.7421C8.02737 10.6057 8.84804 10.2081 9.5051 9.55131L8.44465 8.49045ZM14.7449 17.066C14.8331 16.5144 15.0893 15.9854 15.5155 15.5594L14.4551 14.4985C13.798 15.1553 13.4002 15.9758 13.2637 16.829L14.7449 17.066ZM9.28434 12.0073C8.67114 11.2398 8.14722 10.4458 7.71575 9.64556L6.39544 10.3574C6.87072 11.2389 7.4447 12.1078 8.11244 12.9436L9.28434 12.0073ZM14.36 16.2872C13.5585 15.8554 12.7631 15.3314 11.9948 14.7178L11.0588 15.8899C11.8958 16.5583 12.7661 17.1323 13.6486 17.6077L14.36 16.2872Z" fill="#292556"/>
</svg>
