<svg width="24" height="24" viewBox="0 0 24 24" fill="none" xmlns="http://www.w3.org/2000/svg">
<path d="M20.0001 17.5V18.25C20.4143 18.25 20.7501 17.9142 20.7501 17.5H20.0001ZM4.00006 17.5H3.25006C3.25006 17.9142 3.58585 18.25 4.00006 18.25V17.5ZM9.8891 10.3336C10.2433 10.1188 10.3562 9.65753 10.1414 9.30337C9.92664 8.9492 9.4654 8.83622 9.11124 9.05103L9.8891 10.3336ZM5.95813 13.3197C5.85762 13.7215 6.1019 14.1287 6.50374 14.2292C6.90557 14.3298 7.3128 14.0855 7.4133 13.6836L5.95813 13.3197ZM16.3324 8.68616C16.6643 8.93394 17.1342 8.86573 17.382 8.5338C17.6298 8.20187 17.5616 7.73193 17.2297 7.48414L16.3324 8.68616ZM19.9946 10.9385C19.8259 10.5602 19.3824 10.3903 19.0041 10.5591C18.6258 10.7278 18.456 11.1713 18.6247 11.5496L19.9946 10.9385ZM4.50006 18.25H19.5001V16.75H4.50006V18.25ZM19.2501 14.5V17.5H20.7501V14.5H19.2501ZM20.0001 16.75H4.00006V18.25H20.0001V16.75ZM4.75006 17.5V14.5H3.25006L3.25006 17.5H4.75006ZM12.7501 5C12.7501 5.41421 12.4143 5.75 12.0001 5.75V7.25C13.2427 7.25 14.2501 6.24264 14.2501 5L12.7501 5ZM12.0001 5.75C11.5858 5.75 11.2501 5.41421 11.2501 5H9.75006C9.75006 6.24264 10.7574 7.25 12.0001 7.25V5.75ZM11.2501 5C11.2501 4.58579 11.5858 4.25 12.0001 4.25V2.75C10.7574 2.75 9.75006 3.75736 9.75006 5H11.2501ZM12.0001 4.25C12.4143 4.25 12.7501 4.58579 12.7501 5L14.2501 5C14.2501 3.75736 13.2427 2.75 12.0001 2.75V4.25ZM9.11124 9.05103C7.56376 9.98957 6.40975 11.514 5.95813 13.3197L7.4133 13.6836C7.76695 12.2697 8.67228 11.0716 9.8891 10.3336L9.11124 9.05103ZM12.0001 5.75C7.16757 5.75 3.25006 9.66751 3.25006 14.5H4.75006C4.75006 10.4959 7.996 7.25 12.0001 7.25V5.75ZM4.50006 18.25H19.5001V16.75H4.50006V18.25ZM19.5001 19.75H4.50006V21.25H19.5001V19.75ZM12.0001 7.25C13.6253 7.25 15.1237 7.7839 16.3324 8.68616L17.2297 7.48414C15.7708 6.39506 13.9597 5.75 12.0001 5.75V7.25ZM18.6247 11.5496C19.0264 12.4499 19.2501 13.4478 19.2501 14.5H20.7501C20.7501 13.2332 20.4804 12.0274 19.9946 10.9385L18.6247 11.5496ZM4.50006 19.75C4.08585 19.75 3.75006 19.4142 3.75006 19H2.25006C2.25006 20.2426 3.25742 21.25 4.50006 21.25V19.75ZM20.2501 19C20.2501 19.4142 19.9143 19.75 19.5001 19.75V21.25C20.7427 21.25 21.7501 20.2426 21.7501 19H20.2501ZM19.5001 18.25C19.9143 18.25 20.2501 18.5858 20.2501 19H21.7501C21.7501 17.7574 20.7427 16.75 19.5001 16.75V18.25ZM4.50006 16.75C3.25742 16.75 2.25006 17.7574 2.25006 19H3.75006C3.75006 18.5858 4.08585 18.25 4.50006 18.25V16.75Z" fill="#292556"/>
</svg>
