<svg width="24" height="24" viewBox="0 0 24 24" fill="none" xmlns="http://www.w3.org/2000/svg">
<path d="M9.50031 10L10.9622 9.20258M15.0003 7L13.5967 7.7656M9.50031 14L15.0003 17M18.0003 21V21C19.6572 21 21.0003 19.6569 21.0003 18V18C21.0003 16.3431 19.6572 15 18.0003 15V15C16.3435 15 15.0003 16.3431 15.0003 18V18C15.0003 19.6569 16.3435 21 18.0003 21ZM18.0003 9V9C19.6572 9 21.0003 7.65685 21.0003 6V6C21.0003 4.34315 19.6572 3 18.0003 3V3C16.3435 3 15.0003 4.34315 15.0003 6V6C15.0003 7.65685 16.3435 9 18.0003 9ZM6.50031 15.5V15.5C8.4333 15.5 10.0003 13.933 10.0003 12V12C10.0003 10.067 8.4333 8.5 6.50031 8.5V8.5C4.56731 8.5 3.00031 10.067 3.00031 12V12C3.00031 13.933 4.56731 15.5 6.50031 15.5Z" stroke="#292556" stroke-width="1.5" stroke-linecap="round" stroke-linejoin="round"/>
</svg>
